M48
; DRILL file {KiCad 5.1.7-a382d34a8~87~ubuntu20.04.1} date Mon Nov  9 21:14:54 2020
; FORMAT={-:-/ absolute / inch / decimal}
; #@! TF.CreationDate,2020-11-09T21:14:54-03:00
; #@! TF.GenerationSoftware,Kicad,Pcbnew,5.1.7-a382d34a8~87~ubuntu20.04.1
; #@! TF.FileFunction,Plated,1,2,PTH
FMAT,2
INCH
T1C0.0157
T2C0.0394
%
G90
G05
T1
X3.3497Y-2.2477
X3.3664Y-2.5844
X3.4084Y-2.1774
X3.4794Y-2.5585
X3.5078Y-2.5964
X3.5081Y-2.1449
X3.5378Y-2.2651
X3.5986Y-2.5577
X4.2065Y-2.3
T2
X3.565Y-1.8375
X3.665Y-1.8375
X3.765Y-1.8375
X3.865Y-1.8375
X3.46Y-2.9
X3.56Y-2.9
X3.66Y-2.9
X3.76Y-2.9
X3.86Y-2.9
X3.96Y-2.9
X4.06Y-2.9
X4.16Y-2.9
X4.26Y-2.9
X3.175Y-1.9875
X3.175Y-2.0875
X3.175Y-2.365
X3.175Y-2.465
X3.175Y-2.565
X3.275Y-2.365
X3.275Y-2.465
X3.275Y-2.565
X4.0625Y-1.8375
X4.1625Y-1.8375
X4.2625Y-1.8375
X4.3625Y-1.8375
T0
M30
