G04 #@! TF.GenerationSoftware,KiCad,Pcbnew,5.1.7-a382d34a8~87~ubuntu20.04.1*
G04 #@! TF.CreationDate,2020-11-09T21:14:28-03:00*
G04 #@! TF.ProjectId,Arduino_Clone,41726475-696e-46f5-9f43-6c6f6e652e6b,1*
G04 #@! TF.SameCoordinates,Original*
G04 #@! TF.FileFunction,Legend,Top*
G04 #@! TF.FilePolarity,Positive*
%FSLAX46Y46*%
G04 Gerber Fmt 4.6, Leading zero omitted, Abs format (unit mm)*
G04 Created by KiCad (PCBNEW 5.1.7-a382d34a8~87~ubuntu20.04.1) date 2020-11-09 21:14:28*
%MOMM*%
%LPD*%
G01*
G04 APERTURE LIST*
%ADD10C,0.150000*%
%ADD11C,0.120000*%
%ADD12C,0.100000*%
G04 APERTURE END LIST*
D10*
X97739257Y-48642628D02*
X98082114Y-48642628D01*
X97910685Y-49242628D02*
X97910685Y-48642628D01*
X98224971Y-48642628D02*
X98624971Y-49242628D01*
X98624971Y-48642628D02*
X98224971Y-49242628D01*
X95607200Y-49242628D02*
X95407200Y-48956914D01*
X95264342Y-49242628D02*
X95264342Y-48642628D01*
X95492914Y-48642628D01*
X95550057Y-48671200D01*
X95578628Y-48699771D01*
X95607200Y-48756914D01*
X95607200Y-48842628D01*
X95578628Y-48899771D01*
X95550057Y-48928342D01*
X95492914Y-48956914D01*
X95264342Y-48956914D01*
X95807200Y-48642628D02*
X96207200Y-49242628D01*
X96207200Y-48642628D02*
X95807200Y-49242628D01*
X92452914Y-48591828D02*
X92652914Y-49191828D01*
X92852914Y-48591828D01*
X93310057Y-49163257D02*
X93252914Y-49191828D01*
X93138628Y-49191828D01*
X93081485Y-49163257D01*
X93052914Y-49134685D01*
X93024342Y-49077542D01*
X93024342Y-48906114D01*
X93052914Y-48848971D01*
X93081485Y-48820400D01*
X93138628Y-48791828D01*
X93252914Y-48791828D01*
X93310057Y-48820400D01*
X93824342Y-49163257D02*
X93767200Y-49191828D01*
X93652914Y-49191828D01*
X93595771Y-49163257D01*
X93567200Y-49134685D01*
X93538628Y-49077542D01*
X93538628Y-48906114D01*
X93567200Y-48848971D01*
X93595771Y-48820400D01*
X93652914Y-48791828D01*
X93767200Y-48791828D01*
X93824342Y-48820400D01*
X90017657Y-48620400D02*
X89960514Y-48591828D01*
X89874800Y-48591828D01*
X89789085Y-48620400D01*
X89731942Y-48677542D01*
X89703371Y-48734685D01*
X89674800Y-48848971D01*
X89674800Y-48934685D01*
X89703371Y-49048971D01*
X89731942Y-49106114D01*
X89789085Y-49163257D01*
X89874800Y-49191828D01*
X89931942Y-49191828D01*
X90017657Y-49163257D01*
X90046228Y-49134685D01*
X90046228Y-48934685D01*
X89931942Y-48934685D01*
X90303371Y-49191828D02*
X90303371Y-48591828D01*
X90646228Y-49191828D01*
X90646228Y-48591828D01*
X90931942Y-49191828D02*
X90931942Y-48591828D01*
X91074800Y-48591828D01*
X91160514Y-48620400D01*
X91217657Y-48677542D01*
X91246228Y-48734685D01*
X91274800Y-48848971D01*
X91274800Y-48934685D01*
X91246228Y-49048971D01*
X91217657Y-49106114D01*
X91160514Y-49163257D01*
X91074800Y-49191828D01*
X90931942Y-49191828D01*
X110074171Y-49264857D02*
X110159885Y-49293428D01*
X110302742Y-49293428D01*
X110359885Y-49264857D01*
X110388457Y-49236285D01*
X110417028Y-49179142D01*
X110417028Y-49122000D01*
X110388457Y-49064857D01*
X110359885Y-49036285D01*
X110302742Y-49007714D01*
X110188457Y-48979142D01*
X110131314Y-48950571D01*
X110102742Y-48922000D01*
X110074171Y-48864857D01*
X110074171Y-48807714D01*
X110102742Y-48750571D01*
X110131314Y-48722000D01*
X110188457Y-48693428D01*
X110331314Y-48693428D01*
X110417028Y-48722000D01*
X111017028Y-49236285D02*
X110988457Y-49264857D01*
X110902742Y-49293428D01*
X110845600Y-49293428D01*
X110759885Y-49264857D01*
X110702742Y-49207714D01*
X110674171Y-49150571D01*
X110645600Y-49036285D01*
X110645600Y-48950571D01*
X110674171Y-48836285D01*
X110702742Y-48779142D01*
X110759885Y-48722000D01*
X110845600Y-48693428D01*
X110902742Y-48693428D01*
X110988457Y-48722000D01*
X111017028Y-48750571D01*
X111274171Y-49293428D02*
X111274171Y-48693428D01*
X111617028Y-49293428D02*
X111359885Y-48950571D01*
X111617028Y-48693428D02*
X111274171Y-49036285D01*
X107475428Y-49264857D02*
X107561142Y-49293428D01*
X107704000Y-49293428D01*
X107761142Y-49264857D01*
X107789714Y-49236285D01*
X107818285Y-49179142D01*
X107818285Y-49122000D01*
X107789714Y-49064857D01*
X107761142Y-49036285D01*
X107704000Y-49007714D01*
X107589714Y-48979142D01*
X107532571Y-48950571D01*
X107504000Y-48922000D01*
X107475428Y-48864857D01*
X107475428Y-48807714D01*
X107504000Y-48750571D01*
X107532571Y-48722000D01*
X107589714Y-48693428D01*
X107732571Y-48693428D01*
X107818285Y-48722000D01*
X108075428Y-49293428D02*
X108075428Y-48693428D01*
X108218285Y-48693428D01*
X108304000Y-48722000D01*
X108361142Y-48779142D01*
X108389714Y-48836285D01*
X108418285Y-48950571D01*
X108418285Y-49036285D01*
X108389714Y-49150571D01*
X108361142Y-49207714D01*
X108304000Y-49264857D01*
X108218285Y-49293428D01*
X108075428Y-49293428D01*
X108646857Y-49122000D02*
X108932571Y-49122000D01*
X108589714Y-49293428D02*
X108789714Y-48693428D01*
X108989714Y-49293428D01*
X104898914Y-48642628D02*
X105098914Y-49242628D01*
X105298914Y-48642628D01*
X105756057Y-49214057D02*
X105698914Y-49242628D01*
X105584628Y-49242628D01*
X105527485Y-49214057D01*
X105498914Y-49185485D01*
X105470342Y-49128342D01*
X105470342Y-48956914D01*
X105498914Y-48899771D01*
X105527485Y-48871200D01*
X105584628Y-48842628D01*
X105698914Y-48842628D01*
X105756057Y-48871200D01*
X106270342Y-49214057D02*
X106213200Y-49242628D01*
X106098914Y-49242628D01*
X106041771Y-49214057D01*
X106013200Y-49185485D01*
X105984628Y-49128342D01*
X105984628Y-48956914D01*
X106013200Y-48899771D01*
X106041771Y-48871200D01*
X106098914Y-48842628D01*
X106213200Y-48842628D01*
X106270342Y-48871200D01*
X102463657Y-48671200D02*
X102406514Y-48642628D01*
X102320800Y-48642628D01*
X102235085Y-48671200D01*
X102177942Y-48728342D01*
X102149371Y-48785485D01*
X102120800Y-48899771D01*
X102120800Y-48985485D01*
X102149371Y-49099771D01*
X102177942Y-49156914D01*
X102235085Y-49214057D01*
X102320800Y-49242628D01*
X102377942Y-49242628D01*
X102463657Y-49214057D01*
X102492228Y-49185485D01*
X102492228Y-48985485D01*
X102377942Y-48985485D01*
X102749371Y-49242628D02*
X102749371Y-48642628D01*
X103092228Y-49242628D01*
X103092228Y-48642628D01*
X103377942Y-49242628D02*
X103377942Y-48642628D01*
X103520800Y-48642628D01*
X103606514Y-48671200D01*
X103663657Y-48728342D01*
X103692228Y-48785485D01*
X103720800Y-48899771D01*
X103720800Y-48985485D01*
X103692228Y-49099771D01*
X103663657Y-49156914D01*
X103606514Y-49214057D01*
X103520800Y-49242628D01*
X103377942Y-49242628D01*
X107388114Y-71096228D02*
X107588114Y-71696228D01*
X107788114Y-71096228D01*
X108245257Y-71667657D02*
X108188114Y-71696228D01*
X108073828Y-71696228D01*
X108016685Y-71667657D01*
X107988114Y-71639085D01*
X107959542Y-71581942D01*
X107959542Y-71410514D01*
X107988114Y-71353371D01*
X108016685Y-71324800D01*
X108073828Y-71296228D01*
X108188114Y-71296228D01*
X108245257Y-71324800D01*
X108759542Y-71667657D02*
X108702400Y-71696228D01*
X108588114Y-71696228D01*
X108530971Y-71667657D01*
X108502400Y-71639085D01*
X108473828Y-71581942D01*
X108473828Y-71410514D01*
X108502400Y-71353371D01*
X108530971Y-71324800D01*
X108588114Y-71296228D01*
X108702400Y-71296228D01*
X108759542Y-71324800D01*
X105117957Y-71124800D02*
X105060814Y-71096228D01*
X104975100Y-71096228D01*
X104889385Y-71124800D01*
X104832242Y-71181942D01*
X104803671Y-71239085D01*
X104775100Y-71353371D01*
X104775100Y-71439085D01*
X104803671Y-71553371D01*
X104832242Y-71610514D01*
X104889385Y-71667657D01*
X104975100Y-71696228D01*
X105032242Y-71696228D01*
X105117957Y-71667657D01*
X105146528Y-71639085D01*
X105146528Y-71439085D01*
X105032242Y-71439085D01*
X105403671Y-71696228D02*
X105403671Y-71096228D01*
X105746528Y-71696228D01*
X105746528Y-71096228D01*
X106032242Y-71696228D02*
X106032242Y-71096228D01*
X106175100Y-71096228D01*
X106260814Y-71124800D01*
X106317957Y-71181942D01*
X106346528Y-71239085D01*
X106375100Y-71353371D01*
X106375100Y-71439085D01*
X106346528Y-71553371D01*
X106317957Y-71610514D01*
X106260814Y-71667657D01*
X106175100Y-71696228D01*
X106032242Y-71696228D01*
X102604942Y-71594628D02*
X102604942Y-70994628D01*
X102747800Y-70994628D01*
X102833514Y-71023200D01*
X102890657Y-71080342D01*
X102919228Y-71137485D01*
X102947800Y-71251771D01*
X102947800Y-71337485D01*
X102919228Y-71451771D01*
X102890657Y-71508914D01*
X102833514Y-71566057D01*
X102747800Y-71594628D01*
X102604942Y-71594628D01*
X103290657Y-71251771D02*
X103233514Y-71223200D01*
X103204942Y-71194628D01*
X103176371Y-71137485D01*
X103176371Y-71108914D01*
X103204942Y-71051771D01*
X103233514Y-71023200D01*
X103290657Y-70994628D01*
X103404942Y-70994628D01*
X103462085Y-71023200D01*
X103490657Y-71051771D01*
X103519228Y-71108914D01*
X103519228Y-71137485D01*
X103490657Y-71194628D01*
X103462085Y-71223200D01*
X103404942Y-71251771D01*
X103290657Y-71251771D01*
X103233514Y-71280342D01*
X103204942Y-71308914D01*
X103176371Y-71366057D01*
X103176371Y-71480342D01*
X103204942Y-71537485D01*
X103233514Y-71566057D01*
X103290657Y-71594628D01*
X103404942Y-71594628D01*
X103462085Y-71566057D01*
X103490657Y-71537485D01*
X103519228Y-71480342D01*
X103519228Y-71366057D01*
X103490657Y-71308914D01*
X103462085Y-71280342D01*
X103404942Y-71251771D01*
X100077642Y-71543828D02*
X100077642Y-70943828D01*
X100220500Y-70943828D01*
X100306214Y-70972400D01*
X100363357Y-71029542D01*
X100391928Y-71086685D01*
X100420500Y-71200971D01*
X100420500Y-71286685D01*
X100391928Y-71400971D01*
X100363357Y-71458114D01*
X100306214Y-71515257D01*
X100220500Y-71543828D01*
X100077642Y-71543828D01*
X100620500Y-70943828D02*
X101020500Y-70943828D01*
X100763357Y-71543828D01*
X97550342Y-71543828D02*
X97550342Y-70943828D01*
X97693200Y-70943828D01*
X97778914Y-70972400D01*
X97836057Y-71029542D01*
X97864628Y-71086685D01*
X97893200Y-71200971D01*
X97893200Y-71286685D01*
X97864628Y-71400971D01*
X97836057Y-71458114D01*
X97778914Y-71515257D01*
X97693200Y-71543828D01*
X97550342Y-71543828D01*
X98407485Y-70943828D02*
X98293200Y-70943828D01*
X98236057Y-70972400D01*
X98207485Y-71000971D01*
X98150342Y-71086685D01*
X98121771Y-71200971D01*
X98121771Y-71429542D01*
X98150342Y-71486685D01*
X98178914Y-71515257D01*
X98236057Y-71543828D01*
X98350342Y-71543828D01*
X98407485Y-71515257D01*
X98436057Y-71486685D01*
X98464628Y-71429542D01*
X98464628Y-71286685D01*
X98436057Y-71229542D01*
X98407485Y-71200971D01*
X98350342Y-71172400D01*
X98236057Y-71172400D01*
X98178914Y-71200971D01*
X98150342Y-71229542D01*
X98121771Y-71286685D01*
X95023042Y-71543828D02*
X95023042Y-70943828D01*
X95165900Y-70943828D01*
X95251614Y-70972400D01*
X95308757Y-71029542D01*
X95337328Y-71086685D01*
X95365900Y-71200971D01*
X95365900Y-71286685D01*
X95337328Y-71400971D01*
X95308757Y-71458114D01*
X95251614Y-71515257D01*
X95165900Y-71543828D01*
X95023042Y-71543828D01*
X95908757Y-70943828D02*
X95623042Y-70943828D01*
X95594471Y-71229542D01*
X95623042Y-71200971D01*
X95680185Y-71172400D01*
X95823042Y-71172400D01*
X95880185Y-71200971D01*
X95908757Y-71229542D01*
X95937328Y-71286685D01*
X95937328Y-71429542D01*
X95908757Y-71486685D01*
X95880185Y-71515257D01*
X95823042Y-71543828D01*
X95680185Y-71543828D01*
X95623042Y-71515257D01*
X95594471Y-71486685D01*
X92495742Y-71594628D02*
X92495742Y-70994628D01*
X92638600Y-70994628D01*
X92724314Y-71023200D01*
X92781457Y-71080342D01*
X92810028Y-71137485D01*
X92838600Y-71251771D01*
X92838600Y-71337485D01*
X92810028Y-71451771D01*
X92781457Y-71508914D01*
X92724314Y-71566057D01*
X92638600Y-71594628D01*
X92495742Y-71594628D01*
X93352885Y-71194628D02*
X93352885Y-71594628D01*
X93210028Y-70966057D02*
X93067171Y-71394628D01*
X93438600Y-71394628D01*
X89968442Y-71594628D02*
X89968442Y-70994628D01*
X90111300Y-70994628D01*
X90197014Y-71023200D01*
X90254157Y-71080342D01*
X90282728Y-71137485D01*
X90311300Y-71251771D01*
X90311300Y-71337485D01*
X90282728Y-71451771D01*
X90254157Y-71508914D01*
X90197014Y-71566057D01*
X90111300Y-71594628D01*
X89968442Y-71594628D01*
X90511300Y-70994628D02*
X90882728Y-70994628D01*
X90682728Y-71223200D01*
X90768442Y-71223200D01*
X90825585Y-71251771D01*
X90854157Y-71280342D01*
X90882728Y-71337485D01*
X90882728Y-71480342D01*
X90854157Y-71537485D01*
X90825585Y-71566057D01*
X90768442Y-71594628D01*
X90597014Y-71594628D01*
X90539871Y-71566057D01*
X90511300Y-71537485D01*
X87441142Y-71543828D02*
X87441142Y-70943828D01*
X87584000Y-70943828D01*
X87669714Y-70972400D01*
X87726857Y-71029542D01*
X87755428Y-71086685D01*
X87784000Y-71200971D01*
X87784000Y-71286685D01*
X87755428Y-71400971D01*
X87726857Y-71458114D01*
X87669714Y-71515257D01*
X87584000Y-71543828D01*
X87441142Y-71543828D01*
X88012571Y-71000971D02*
X88041142Y-70972400D01*
X88098285Y-70943828D01*
X88241142Y-70943828D01*
X88298285Y-70972400D01*
X88326857Y-71000971D01*
X88355428Y-71058114D01*
X88355428Y-71115257D01*
X88326857Y-71200971D01*
X87984000Y-71543828D01*
X88355428Y-71543828D01*
X85666228Y-64844571D02*
X85380514Y-65044571D01*
X85666228Y-65187428D02*
X85066228Y-65187428D01*
X85066228Y-64958857D01*
X85094800Y-64901714D01*
X85123371Y-64873142D01*
X85180514Y-64844571D01*
X85266228Y-64844571D01*
X85323371Y-64873142D01*
X85351942Y-64901714D01*
X85380514Y-64958857D01*
X85380514Y-65187428D01*
X85637657Y-64616000D02*
X85666228Y-64530285D01*
X85666228Y-64387428D01*
X85637657Y-64330285D01*
X85609085Y-64301714D01*
X85551942Y-64273142D01*
X85494800Y-64273142D01*
X85437657Y-64301714D01*
X85409085Y-64330285D01*
X85380514Y-64387428D01*
X85351942Y-64501714D01*
X85323371Y-64558857D01*
X85294800Y-64587428D01*
X85237657Y-64616000D01*
X85180514Y-64616000D01*
X85123371Y-64587428D01*
X85094800Y-64558857D01*
X85066228Y-64501714D01*
X85066228Y-64358857D01*
X85094800Y-64273142D01*
X85066228Y-64101714D02*
X85066228Y-63758857D01*
X85666228Y-63930285D02*
X85066228Y-63930285D01*
X85637657Y-63255428D02*
X85666228Y-63169714D01*
X85666228Y-63026857D01*
X85637657Y-62969714D01*
X85609085Y-62941142D01*
X85551942Y-62912571D01*
X85494800Y-62912571D01*
X85437657Y-62941142D01*
X85409085Y-62969714D01*
X85380514Y-63026857D01*
X85351942Y-63141142D01*
X85323371Y-63198285D01*
X85294800Y-63226857D01*
X85237657Y-63255428D01*
X85180514Y-63255428D01*
X85123371Y-63226857D01*
X85094800Y-63198285D01*
X85066228Y-63141142D01*
X85066228Y-62998285D01*
X85094800Y-62912571D01*
X85609085Y-62312571D02*
X85637657Y-62341142D01*
X85666228Y-62426857D01*
X85666228Y-62484000D01*
X85637657Y-62569714D01*
X85580514Y-62626857D01*
X85523371Y-62655428D01*
X85409085Y-62684000D01*
X85323371Y-62684000D01*
X85209085Y-62655428D01*
X85151942Y-62626857D01*
X85094800Y-62569714D01*
X85066228Y-62484000D01*
X85066228Y-62426857D01*
X85094800Y-62341142D01*
X85123371Y-62312571D01*
X85666228Y-62055428D02*
X85066228Y-62055428D01*
X85666228Y-61712571D02*
X85323371Y-61969714D01*
X85066228Y-61712571D02*
X85409085Y-62055428D01*
X85615428Y-60937657D02*
X85015428Y-60937657D01*
X85444000Y-60737657D01*
X85015428Y-60537657D01*
X85615428Y-60537657D01*
X85615428Y-60251942D02*
X85015428Y-60251942D01*
X85586857Y-59994800D02*
X85615428Y-59909085D01*
X85615428Y-59766228D01*
X85586857Y-59709085D01*
X85558285Y-59680514D01*
X85501142Y-59651942D01*
X85444000Y-59651942D01*
X85386857Y-59680514D01*
X85358285Y-59709085D01*
X85329714Y-59766228D01*
X85301142Y-59880514D01*
X85272571Y-59937657D01*
X85244000Y-59966228D01*
X85186857Y-59994800D01*
X85129714Y-59994800D01*
X85072571Y-59966228D01*
X85044000Y-59937657D01*
X85015428Y-59880514D01*
X85015428Y-59737657D01*
X85044000Y-59651942D01*
X85015428Y-59280514D02*
X85015428Y-59166228D01*
X85044000Y-59109085D01*
X85101142Y-59051942D01*
X85215428Y-59023371D01*
X85415428Y-59023371D01*
X85529714Y-59051942D01*
X85586857Y-59109085D01*
X85615428Y-59166228D01*
X85615428Y-59280514D01*
X85586857Y-59337657D01*
X85529714Y-59394800D01*
X85415428Y-59423371D01*
X85215428Y-59423371D01*
X85101142Y-59394800D01*
X85044000Y-59337657D01*
X85015428Y-59280514D01*
X81991257Y-53243200D02*
X81934114Y-53214628D01*
X81848400Y-53214628D01*
X81762685Y-53243200D01*
X81705542Y-53300342D01*
X81676971Y-53357485D01*
X81648400Y-53471771D01*
X81648400Y-53557485D01*
X81676971Y-53671771D01*
X81705542Y-53728914D01*
X81762685Y-53786057D01*
X81848400Y-53814628D01*
X81905542Y-53814628D01*
X81991257Y-53786057D01*
X82019828Y-53757485D01*
X82019828Y-53557485D01*
X81905542Y-53557485D01*
X82276971Y-53814628D02*
X82276971Y-53214628D01*
X82619828Y-53814628D01*
X82619828Y-53214628D01*
X82905542Y-53814628D02*
X82905542Y-53214628D01*
X83048400Y-53214628D01*
X83134114Y-53243200D01*
X83191257Y-53300342D01*
X83219828Y-53357485D01*
X83248400Y-53471771D01*
X83248400Y-53557485D01*
X83219828Y-53671771D01*
X83191257Y-53728914D01*
X83134114Y-53786057D01*
X83048400Y-53814628D01*
X82905542Y-53814628D01*
X81632514Y-50014228D02*
X81832514Y-50614228D01*
X82032514Y-50014228D01*
X82489657Y-50585657D02*
X82432514Y-50614228D01*
X82318228Y-50614228D01*
X82261085Y-50585657D01*
X82232514Y-50557085D01*
X82203942Y-50499942D01*
X82203942Y-50328514D01*
X82232514Y-50271371D01*
X82261085Y-50242800D01*
X82318228Y-50214228D01*
X82432514Y-50214228D01*
X82489657Y-50242800D01*
X83003942Y-50585657D02*
X82946800Y-50614228D01*
X82832514Y-50614228D01*
X82775371Y-50585657D01*
X82746800Y-50557085D01*
X82718228Y-50499942D01*
X82718228Y-50328514D01*
X82746800Y-50271371D01*
X82775371Y-50242800D01*
X82832514Y-50214228D01*
X82946800Y-50214228D01*
X83003942Y-50242800D01*
D11*
X79315000Y-54352500D02*
X81975000Y-54352500D01*
X79315000Y-51752500D02*
X79315000Y-54352500D01*
X81975000Y-51752500D02*
X81975000Y-54352500D01*
X79315000Y-51752500D02*
X81975000Y-51752500D01*
X79315000Y-50482500D02*
X79315000Y-49152500D01*
X79315000Y-49152500D02*
X80645000Y-49152500D01*
X96192748Y-53494000D02*
X96715252Y-53494000D01*
X96192748Y-54964000D02*
X96715252Y-54964000D01*
X96261248Y-51598500D02*
X96783752Y-51598500D01*
X96261248Y-50128500D02*
X96783752Y-50128500D01*
X113421252Y-64679500D02*
X112898748Y-64679500D01*
X113421252Y-63209500D02*
X112898748Y-63209500D01*
X119292000Y-69398000D02*
X116432000Y-69398000D01*
X116432000Y-69398000D02*
X116432000Y-71318000D01*
X116432000Y-71318000D02*
X119292000Y-71318000D01*
X89221000Y-46672500D02*
X89221000Y-45342500D01*
X89221000Y-45342500D02*
X90551000Y-45342500D01*
X91821000Y-45342500D02*
X99501000Y-45342500D01*
X99501000Y-48002500D02*
X99501000Y-45342500D01*
X91821000Y-48002500D02*
X99501000Y-48002500D01*
X91821000Y-48002500D02*
X91821000Y-45342500D01*
X89154000Y-74990000D02*
X89154000Y-72330000D01*
X89154000Y-74990000D02*
X109534000Y-74990000D01*
X109534000Y-74990000D02*
X109534000Y-72330000D01*
X89154000Y-72330000D02*
X109534000Y-72330000D01*
X86554000Y-72330000D02*
X87884000Y-72330000D01*
X86554000Y-73660000D02*
X86554000Y-72330000D01*
X79315000Y-58741000D02*
X81915000Y-58741000D01*
X79315000Y-58741000D02*
X79315000Y-66481000D01*
X79315000Y-66481000D02*
X84515000Y-66481000D01*
X84515000Y-61341000D02*
X84515000Y-66481000D01*
X81915000Y-61341000D02*
X84515000Y-61341000D01*
X81915000Y-58741000D02*
X81915000Y-61341000D01*
X84515000Y-58741000D02*
X84515000Y-60071000D01*
X83185000Y-58741000D02*
X84515000Y-58741000D01*
X104458000Y-48002500D02*
X104458000Y-45342500D01*
X104458000Y-48002500D02*
X112138000Y-48002500D01*
X112138000Y-48002500D02*
X112138000Y-45342500D01*
X104458000Y-45342500D02*
X112138000Y-45342500D01*
X101858000Y-45342500D02*
X103188000Y-45342500D01*
X101858000Y-46672500D02*
X101858000Y-45342500D01*
X113678064Y-70966000D02*
X113223936Y-70966000D01*
X113678064Y-69496000D02*
X113223936Y-69496000D01*
X85060564Y-46191500D02*
X84606436Y-46191500D01*
X85060564Y-47661500D02*
X84606436Y-47661500D01*
X115570000Y-59344000D02*
X118330000Y-59344000D01*
X118330000Y-59344000D02*
X118330000Y-58599000D01*
X115570000Y-59344000D02*
X112810000Y-59344000D01*
X112810000Y-59344000D02*
X112810000Y-58599000D01*
X115570000Y-52924000D02*
X118330000Y-52924000D01*
X118330000Y-52924000D02*
X118330000Y-53669000D01*
X115570000Y-52924000D02*
X112810000Y-52924000D01*
X112810000Y-52924000D02*
X112810000Y-53669000D01*
X112810000Y-53669000D02*
X111120000Y-53669000D01*
D10*
X101898000Y-53760000D02*
X101898000Y-53965000D01*
X107398000Y-53760000D02*
X107398000Y-54060000D01*
X107398000Y-59270000D02*
X107398000Y-58970000D01*
X101898000Y-59270000D02*
X101898000Y-58970000D01*
X101898000Y-53760000D02*
X107398000Y-53760000D01*
X101898000Y-59270000D02*
X107398000Y-59270000D01*
X101898000Y-53965000D02*
X100148000Y-53965000D01*
X101708000Y-63236000D02*
X99958000Y-63236000D01*
X101708000Y-68541000D02*
X107208000Y-68541000D01*
X101708000Y-63031000D02*
X107208000Y-63031000D01*
X101708000Y-68541000D02*
X101708000Y-68241000D01*
X107208000Y-68541000D02*
X107208000Y-68241000D01*
X107208000Y-63031000D02*
X107208000Y-63331000D01*
X101708000Y-63031000D02*
X101708000Y-63236000D01*
D12*
X87909000Y-59519000D02*
X87809000Y-59519000D01*
X87809000Y-59519000D02*
X87459000Y-59869000D01*
X87459000Y-59869000D02*
X87459000Y-59969000D01*
X87459000Y-59969000D02*
X86159000Y-59969000D01*
X94659000Y-59519000D02*
X94209000Y-59519000D01*
X94659000Y-59519000D02*
X94659000Y-59969000D01*
X94659000Y-66719000D02*
X94659000Y-66269000D01*
X94659000Y-66719000D02*
X94209000Y-66719000D01*
X87459000Y-66719000D02*
X87909000Y-66719000D01*
X87459000Y-66719000D02*
X87459000Y-66269000D01*
D11*
X117730000Y-63058000D02*
X118830000Y-63058000D01*
X117730000Y-64958000D02*
X118830000Y-64958000D01*
X116330000Y-63108000D02*
X116330000Y-64908000D01*
X90453500Y-49254000D02*
X83203500Y-49254000D01*
X83203500Y-49254000D02*
X83203500Y-52854000D01*
X83203500Y-52854000D02*
X90453500Y-52854000D01*
D10*
X80173571Y-48109642D02*
X80259285Y-48138214D01*
X80287857Y-48166785D01*
X80316428Y-48223928D01*
X80316428Y-48309642D01*
X80287857Y-48366785D01*
X80259285Y-48395357D01*
X80202142Y-48423928D01*
X79973571Y-48423928D01*
X79973571Y-47823928D01*
X80173571Y-47823928D01*
X80230714Y-47852500D01*
X80259285Y-47881071D01*
X80287857Y-47938214D01*
X80287857Y-47995357D01*
X80259285Y-48052500D01*
X80230714Y-48081071D01*
X80173571Y-48109642D01*
X79973571Y-48109642D01*
X80487857Y-47823928D02*
X80830714Y-47823928D01*
X80659285Y-48423928D02*
X80659285Y-47823928D01*
X81345000Y-48423928D02*
X81002142Y-48423928D01*
X81173571Y-48423928D02*
X81173571Y-47823928D01*
X81116428Y-47909642D01*
X81059285Y-47966785D01*
X81002142Y-47995357D01*
X96354000Y-53046285D02*
X96325428Y-53074857D01*
X96239714Y-53103428D01*
X96182571Y-53103428D01*
X96096857Y-53074857D01*
X96039714Y-53017714D01*
X96011142Y-52960571D01*
X95982571Y-52846285D01*
X95982571Y-52760571D01*
X96011142Y-52646285D01*
X96039714Y-52589142D01*
X96096857Y-52532000D01*
X96182571Y-52503428D01*
X96239714Y-52503428D01*
X96325428Y-52532000D01*
X96354000Y-52560571D01*
X96925428Y-53103428D02*
X96582571Y-53103428D01*
X96754000Y-53103428D02*
X96754000Y-52503428D01*
X96696857Y-52589142D01*
X96639714Y-52646285D01*
X96582571Y-52674857D01*
X95468285Y-55637571D02*
X95496857Y-55609000D01*
X95554000Y-55580428D01*
X95696857Y-55580428D01*
X95754000Y-55609000D01*
X95782571Y-55637571D01*
X95811142Y-55694714D01*
X95811142Y-55751857D01*
X95782571Y-55837571D01*
X95439714Y-56180428D01*
X95811142Y-56180428D01*
X96039714Y-55637571D02*
X96068285Y-55609000D01*
X96125428Y-55580428D01*
X96268285Y-55580428D01*
X96325428Y-55609000D01*
X96354000Y-55637571D01*
X96382571Y-55694714D01*
X96382571Y-55751857D01*
X96354000Y-55837571D01*
X96011142Y-56180428D01*
X96382571Y-56180428D01*
X96639714Y-55780428D02*
X96639714Y-56380428D01*
X96639714Y-55809000D02*
X96696857Y-55780428D01*
X96811142Y-55780428D01*
X96868285Y-55809000D01*
X96896857Y-55837571D01*
X96925428Y-55894714D01*
X96925428Y-56066142D01*
X96896857Y-56123285D01*
X96868285Y-56151857D01*
X96811142Y-56180428D01*
X96696857Y-56180428D01*
X96639714Y-56151857D01*
X97382571Y-55866142D02*
X97182571Y-55866142D01*
X97182571Y-56180428D02*
X97182571Y-55580428D01*
X97468285Y-55580428D01*
X98960000Y-50315785D02*
X98931428Y-50344357D01*
X98845714Y-50372928D01*
X98788571Y-50372928D01*
X98702857Y-50344357D01*
X98645714Y-50287214D01*
X98617142Y-50230071D01*
X98588571Y-50115785D01*
X98588571Y-50030071D01*
X98617142Y-49915785D01*
X98645714Y-49858642D01*
X98702857Y-49801500D01*
X98788571Y-49772928D01*
X98845714Y-49772928D01*
X98931428Y-49801500D01*
X98960000Y-49830071D01*
X99188571Y-49830071D02*
X99217142Y-49801500D01*
X99274285Y-49772928D01*
X99417142Y-49772928D01*
X99474285Y-49801500D01*
X99502857Y-49830071D01*
X99531428Y-49887214D01*
X99531428Y-49944357D01*
X99502857Y-50030071D01*
X99160000Y-50372928D01*
X99531428Y-50372928D01*
X98582285Y-50909571D02*
X98610857Y-50881000D01*
X98668000Y-50852428D01*
X98810857Y-50852428D01*
X98868000Y-50881000D01*
X98896571Y-50909571D01*
X98925142Y-50966714D01*
X98925142Y-51023857D01*
X98896571Y-51109571D01*
X98553714Y-51452428D01*
X98925142Y-51452428D01*
X99153714Y-50909571D02*
X99182285Y-50881000D01*
X99239428Y-50852428D01*
X99382285Y-50852428D01*
X99439428Y-50881000D01*
X99468000Y-50909571D01*
X99496571Y-50966714D01*
X99496571Y-51023857D01*
X99468000Y-51109571D01*
X99125142Y-51452428D01*
X99496571Y-51452428D01*
X99753714Y-51052428D02*
X99753714Y-51652428D01*
X99753714Y-51081000D02*
X99810857Y-51052428D01*
X99925142Y-51052428D01*
X99982285Y-51081000D01*
X100010857Y-51109571D01*
X100039428Y-51166714D01*
X100039428Y-51338142D01*
X100010857Y-51395285D01*
X99982285Y-51423857D01*
X99925142Y-51452428D01*
X99810857Y-51452428D01*
X99753714Y-51423857D01*
X100496571Y-51138142D02*
X100296571Y-51138142D01*
X100296571Y-51452428D02*
X100296571Y-50852428D01*
X100582285Y-50852428D01*
X113060000Y-65838785D02*
X113031428Y-65867357D01*
X112945714Y-65895928D01*
X112888571Y-65895928D01*
X112802857Y-65867357D01*
X112745714Y-65810214D01*
X112717142Y-65753071D01*
X112688571Y-65638785D01*
X112688571Y-65553071D01*
X112717142Y-65438785D01*
X112745714Y-65381642D01*
X112802857Y-65324500D01*
X112888571Y-65295928D01*
X112945714Y-65295928D01*
X113031428Y-65324500D01*
X113060000Y-65353071D01*
X113260000Y-65295928D02*
X113631428Y-65295928D01*
X113431428Y-65524500D01*
X113517142Y-65524500D01*
X113574285Y-65553071D01*
X113602857Y-65581642D01*
X113631428Y-65638785D01*
X113631428Y-65781642D01*
X113602857Y-65838785D01*
X113574285Y-65867357D01*
X113517142Y-65895928D01*
X113345714Y-65895928D01*
X113288571Y-65867357D01*
X113260000Y-65838785D01*
X112517142Y-62535928D02*
X112174285Y-62535928D01*
X112345714Y-62535928D02*
X112345714Y-61935928D01*
X112288571Y-62021642D01*
X112231428Y-62078785D01*
X112174285Y-62107357D01*
X112888571Y-61935928D02*
X112945714Y-61935928D01*
X113002857Y-61964500D01*
X113031428Y-61993071D01*
X113060000Y-62050214D01*
X113088571Y-62164500D01*
X113088571Y-62307357D01*
X113060000Y-62421642D01*
X113031428Y-62478785D01*
X113002857Y-62507357D01*
X112945714Y-62535928D01*
X112888571Y-62535928D01*
X112831428Y-62507357D01*
X112802857Y-62478785D01*
X112774285Y-62421642D01*
X112745714Y-62307357D01*
X112745714Y-62164500D01*
X112774285Y-62050214D01*
X112802857Y-61993071D01*
X112831428Y-61964500D01*
X112888571Y-61935928D01*
X113602857Y-62135928D02*
X113602857Y-62535928D01*
X113345714Y-62135928D02*
X113345714Y-62450214D01*
X113374285Y-62507357D01*
X113431428Y-62535928D01*
X113517142Y-62535928D01*
X113574285Y-62507357D01*
X113602857Y-62478785D01*
X114088571Y-62221642D02*
X113888571Y-62221642D01*
X113888571Y-62535928D02*
X113888571Y-61935928D01*
X114174285Y-61935928D01*
X117849142Y-68979428D02*
X117849142Y-68379428D01*
X117992000Y-68379428D01*
X118077714Y-68408000D01*
X118134857Y-68465142D01*
X118163428Y-68522285D01*
X118192000Y-68636571D01*
X118192000Y-68722285D01*
X118163428Y-68836571D01*
X118134857Y-68893714D01*
X118077714Y-68950857D01*
X117992000Y-68979428D01*
X117849142Y-68979428D01*
X118763428Y-68979428D02*
X118420571Y-68979428D01*
X118592000Y-68979428D02*
X118592000Y-68379428D01*
X118534857Y-68465142D01*
X118477714Y-68522285D01*
X118420571Y-68550857D01*
X117914785Y-72153428D02*
X117629071Y-72153428D01*
X117629071Y-71553428D01*
X118114785Y-71839142D02*
X118314785Y-71839142D01*
X118400500Y-72153428D02*
X118114785Y-72153428D01*
X118114785Y-71553428D01*
X118400500Y-71553428D01*
X118657642Y-72153428D02*
X118657642Y-71553428D01*
X118800500Y-71553428D01*
X118886214Y-71582000D01*
X118943357Y-71639142D01*
X118971928Y-71696285D01*
X119000500Y-71810571D01*
X119000500Y-71896285D01*
X118971928Y-72010571D01*
X118943357Y-72067714D01*
X118886214Y-72124857D01*
X118800500Y-72153428D01*
X118657642Y-72153428D01*
X88001500Y-45137428D02*
X88001500Y-45566000D01*
X87972928Y-45651714D01*
X87915785Y-45708857D01*
X87830071Y-45737428D01*
X87772928Y-45737428D01*
X88601500Y-45737428D02*
X88258642Y-45737428D01*
X88430071Y-45737428D02*
X88430071Y-45137428D01*
X88372928Y-45223142D01*
X88315785Y-45280285D01*
X88258642Y-45308857D01*
X85207500Y-73394928D02*
X85207500Y-73823500D01*
X85178928Y-73909214D01*
X85121785Y-73966357D01*
X85036071Y-73994928D01*
X84978928Y-73994928D01*
X85464642Y-73452071D02*
X85493214Y-73423500D01*
X85550357Y-73394928D01*
X85693214Y-73394928D01*
X85750357Y-73423500D01*
X85778928Y-73452071D01*
X85807500Y-73509214D01*
X85807500Y-73566357D01*
X85778928Y-73652071D01*
X85436071Y-73994928D01*
X85807500Y-73994928D01*
X81715000Y-57392928D02*
X81715000Y-57821500D01*
X81686428Y-57907214D01*
X81629285Y-57964357D01*
X81543571Y-57992928D01*
X81486428Y-57992928D01*
X81943571Y-57392928D02*
X82315000Y-57392928D01*
X82115000Y-57621500D01*
X82200714Y-57621500D01*
X82257857Y-57650071D01*
X82286428Y-57678642D01*
X82315000Y-57735785D01*
X82315000Y-57878642D01*
X82286428Y-57935785D01*
X82257857Y-57964357D01*
X82200714Y-57992928D01*
X82029285Y-57992928D01*
X81972142Y-57964357D01*
X81943571Y-57935785D01*
X81029285Y-67708428D02*
X81029285Y-67108428D01*
X81657857Y-67651285D02*
X81629285Y-67679857D01*
X81543571Y-67708428D01*
X81486428Y-67708428D01*
X81400714Y-67679857D01*
X81343571Y-67622714D01*
X81315000Y-67565571D01*
X81286428Y-67451285D01*
X81286428Y-67365571D01*
X81315000Y-67251285D01*
X81343571Y-67194142D01*
X81400714Y-67137000D01*
X81486428Y-67108428D01*
X81543571Y-67108428D01*
X81629285Y-67137000D01*
X81657857Y-67165571D01*
X81886428Y-67679857D02*
X81972142Y-67708428D01*
X82115000Y-67708428D01*
X82172142Y-67679857D01*
X82200714Y-67651285D01*
X82229285Y-67594142D01*
X82229285Y-67537000D01*
X82200714Y-67479857D01*
X82172142Y-67451285D01*
X82115000Y-67422714D01*
X82000714Y-67394142D01*
X81943571Y-67365571D01*
X81915000Y-67337000D01*
X81886428Y-67279857D01*
X81886428Y-67222714D01*
X81915000Y-67165571D01*
X81943571Y-67137000D01*
X82000714Y-67108428D01*
X82143571Y-67108428D01*
X82229285Y-67137000D01*
X82486428Y-67708428D02*
X82486428Y-67108428D01*
X82715000Y-67108428D01*
X82772142Y-67137000D01*
X82800714Y-67165571D01*
X82829285Y-67222714D01*
X82829285Y-67308428D01*
X82800714Y-67365571D01*
X82772142Y-67394142D01*
X82715000Y-67422714D01*
X82486428Y-67422714D01*
X100485600Y-45696228D02*
X100485600Y-46124800D01*
X100457028Y-46210514D01*
X100399885Y-46267657D01*
X100314171Y-46296228D01*
X100257028Y-46296228D01*
X101028457Y-45896228D02*
X101028457Y-46296228D01*
X100885600Y-45667657D02*
X100742742Y-46096228D01*
X101114171Y-46096228D01*
X113374500Y-68978428D02*
X113174500Y-68692714D01*
X113031642Y-68978428D02*
X113031642Y-68378428D01*
X113260214Y-68378428D01*
X113317357Y-68407000D01*
X113345928Y-68435571D01*
X113374500Y-68492714D01*
X113374500Y-68578428D01*
X113345928Y-68635571D01*
X113317357Y-68664142D01*
X113260214Y-68692714D01*
X113031642Y-68692714D01*
X113945928Y-68978428D02*
X113603071Y-68978428D01*
X113774500Y-68978428D02*
X113774500Y-68378428D01*
X113717357Y-68464142D01*
X113660214Y-68521285D01*
X113603071Y-68549857D01*
X112034857Y-71362928D02*
X112406285Y-71362928D01*
X112206285Y-71591500D01*
X112292000Y-71591500D01*
X112349142Y-71620071D01*
X112377714Y-71648642D01*
X112406285Y-71705785D01*
X112406285Y-71848642D01*
X112377714Y-71905785D01*
X112349142Y-71934357D01*
X112292000Y-71962928D01*
X112120571Y-71962928D01*
X112063428Y-71934357D01*
X112034857Y-71905785D01*
X112606285Y-71362928D02*
X112977714Y-71362928D01*
X112777714Y-71591500D01*
X112863428Y-71591500D01*
X112920571Y-71620071D01*
X112949142Y-71648642D01*
X112977714Y-71705785D01*
X112977714Y-71848642D01*
X112949142Y-71905785D01*
X112920571Y-71934357D01*
X112863428Y-71962928D01*
X112692000Y-71962928D01*
X112634857Y-71934357D01*
X112606285Y-71905785D01*
X113349142Y-71362928D02*
X113406285Y-71362928D01*
X113463428Y-71391500D01*
X113492000Y-71420071D01*
X113520571Y-71477214D01*
X113549142Y-71591500D01*
X113549142Y-71734357D01*
X113520571Y-71848642D01*
X113492000Y-71905785D01*
X113463428Y-71934357D01*
X113406285Y-71962928D01*
X113349142Y-71962928D01*
X113292000Y-71934357D01*
X113263428Y-71905785D01*
X113234857Y-71848642D01*
X113206285Y-71734357D01*
X113206285Y-71591500D01*
X113234857Y-71477214D01*
X113263428Y-71420071D01*
X113292000Y-71391500D01*
X113349142Y-71362928D01*
X113920571Y-71362928D02*
X114034857Y-71362928D01*
X114092000Y-71391500D01*
X114149142Y-71448642D01*
X114177714Y-71562928D01*
X114177714Y-71762928D01*
X114149142Y-71877214D01*
X114092000Y-71934357D01*
X114034857Y-71962928D01*
X113920571Y-71962928D01*
X113863428Y-71934357D01*
X113806285Y-71877214D01*
X113777714Y-71762928D01*
X113777714Y-71562928D01*
X113806285Y-71448642D01*
X113863428Y-71391500D01*
X113920571Y-71362928D01*
X114434857Y-71962928D02*
X114434857Y-71562928D01*
X114434857Y-71620071D02*
X114463428Y-71591500D01*
X114520571Y-71562928D01*
X114606285Y-71562928D01*
X114663428Y-71591500D01*
X114692000Y-71648642D01*
X114692000Y-71962928D01*
X114692000Y-71648642D02*
X114720571Y-71591500D01*
X114777714Y-71562928D01*
X114863428Y-71562928D01*
X114920571Y-71591500D01*
X114949142Y-71648642D01*
X114949142Y-71962928D01*
X115234857Y-71962928D02*
X115234857Y-71362928D01*
X115492000Y-71962928D02*
X115492000Y-71648642D01*
X115463428Y-71591500D01*
X115406285Y-71562928D01*
X115320571Y-71562928D01*
X115263428Y-71591500D01*
X115234857Y-71620071D01*
X82450000Y-47197928D02*
X82250000Y-46912214D01*
X82107142Y-47197928D02*
X82107142Y-46597928D01*
X82335714Y-46597928D01*
X82392857Y-46626500D01*
X82421428Y-46655071D01*
X82450000Y-46712214D01*
X82450000Y-46797928D01*
X82421428Y-46855071D01*
X82392857Y-46883642D01*
X82335714Y-46912214D01*
X82107142Y-46912214D01*
X82678571Y-46655071D02*
X82707142Y-46626500D01*
X82764285Y-46597928D01*
X82907142Y-46597928D01*
X82964285Y-46626500D01*
X82992857Y-46655071D01*
X83021428Y-46712214D01*
X83021428Y-46769357D01*
X82992857Y-46855071D01*
X82650000Y-47197928D01*
X83021428Y-47197928D01*
X83433500Y-45547928D02*
X83090642Y-45547928D01*
X83262071Y-45547928D02*
X83262071Y-44947928D01*
X83204928Y-45033642D01*
X83147785Y-45090785D01*
X83090642Y-45119357D01*
X83804928Y-44947928D02*
X83862071Y-44947928D01*
X83919214Y-44976500D01*
X83947785Y-45005071D01*
X83976357Y-45062214D01*
X84004928Y-45176500D01*
X84004928Y-45319357D01*
X83976357Y-45433642D01*
X83947785Y-45490785D01*
X83919214Y-45519357D01*
X83862071Y-45547928D01*
X83804928Y-45547928D01*
X83747785Y-45519357D01*
X83719214Y-45490785D01*
X83690642Y-45433642D01*
X83662071Y-45319357D01*
X83662071Y-45176500D01*
X83690642Y-45062214D01*
X83719214Y-45005071D01*
X83747785Y-44976500D01*
X83804928Y-44947928D01*
X84262071Y-45547928D02*
X84262071Y-44947928D01*
X84604928Y-45547928D02*
X84347785Y-45205071D01*
X84604928Y-44947928D02*
X84262071Y-45290785D01*
X84976357Y-44947928D02*
X85090642Y-44947928D01*
X85147785Y-44976500D01*
X85204928Y-45033642D01*
X85233500Y-45147928D01*
X85233500Y-45347928D01*
X85204928Y-45462214D01*
X85147785Y-45519357D01*
X85090642Y-45547928D01*
X84976357Y-45547928D01*
X84919214Y-45519357D01*
X84862071Y-45462214D01*
X84833500Y-45347928D01*
X84833500Y-45147928D01*
X84862071Y-45033642D01*
X84919214Y-44976500D01*
X84976357Y-44947928D01*
X85490642Y-45547928D02*
X85490642Y-44947928D01*
X85747785Y-45547928D02*
X85747785Y-45233642D01*
X85719214Y-45176500D01*
X85662071Y-45147928D01*
X85576357Y-45147928D01*
X85519214Y-45176500D01*
X85490642Y-45205071D01*
X86033500Y-45547928D02*
X86033500Y-45147928D01*
X86033500Y-45205071D02*
X86062071Y-45176500D01*
X86119214Y-45147928D01*
X86204928Y-45147928D01*
X86262071Y-45176500D01*
X86290642Y-45233642D01*
X86290642Y-45547928D01*
X86290642Y-45233642D02*
X86319214Y-45176500D01*
X86376357Y-45147928D01*
X86462071Y-45147928D01*
X86519214Y-45176500D01*
X86547785Y-45233642D01*
X86547785Y-45547928D01*
X111302857Y-52757428D02*
X111302857Y-53243142D01*
X111331428Y-53300285D01*
X111360000Y-53328857D01*
X111417142Y-53357428D01*
X111531428Y-53357428D01*
X111588571Y-53328857D01*
X111617142Y-53300285D01*
X111645714Y-53243142D01*
X111645714Y-52757428D01*
X112245714Y-53357428D02*
X111902857Y-53357428D01*
X112074285Y-53357428D02*
X112074285Y-52757428D01*
X112017142Y-52843142D01*
X111960000Y-52900285D01*
X111902857Y-52928857D01*
X113263642Y-52531928D02*
X113263642Y-51931928D01*
X113406500Y-51931928D01*
X113492214Y-51960500D01*
X113549357Y-52017642D01*
X113577928Y-52074785D01*
X113606500Y-52189071D01*
X113606500Y-52274785D01*
X113577928Y-52389071D01*
X113549357Y-52446214D01*
X113492214Y-52503357D01*
X113406500Y-52531928D01*
X113263642Y-52531928D01*
X113835071Y-52503357D02*
X113920785Y-52531928D01*
X114063642Y-52531928D01*
X114120785Y-52503357D01*
X114149357Y-52474785D01*
X114177928Y-52417642D01*
X114177928Y-52360500D01*
X114149357Y-52303357D01*
X114120785Y-52274785D01*
X114063642Y-52246214D01*
X113949357Y-52217642D01*
X113892214Y-52189071D01*
X113863642Y-52160500D01*
X113835071Y-52103357D01*
X113835071Y-52046214D01*
X113863642Y-51989071D01*
X113892214Y-51960500D01*
X113949357Y-51931928D01*
X114092214Y-51931928D01*
X114177928Y-51960500D01*
X114749357Y-52531928D02*
X114406500Y-52531928D01*
X114577928Y-52531928D02*
X114577928Y-51931928D01*
X114520785Y-52017642D01*
X114463642Y-52074785D01*
X114406500Y-52103357D01*
X114949357Y-51931928D02*
X115320785Y-51931928D01*
X115120785Y-52160500D01*
X115206500Y-52160500D01*
X115263642Y-52189071D01*
X115292214Y-52217642D01*
X115320785Y-52274785D01*
X115320785Y-52417642D01*
X115292214Y-52474785D01*
X115263642Y-52503357D01*
X115206500Y-52531928D01*
X115035071Y-52531928D01*
X114977928Y-52503357D01*
X114949357Y-52474785D01*
X115520785Y-51931928D02*
X115892214Y-51931928D01*
X115692214Y-52160500D01*
X115777928Y-52160500D01*
X115835071Y-52189071D01*
X115863642Y-52217642D01*
X115892214Y-52274785D01*
X115892214Y-52417642D01*
X115863642Y-52474785D01*
X115835071Y-52503357D01*
X115777928Y-52531928D01*
X115606500Y-52531928D01*
X115549357Y-52503357D01*
X115520785Y-52474785D01*
X116092214Y-51931928D02*
X116492214Y-51931928D01*
X116235071Y-52531928D01*
X116692214Y-52503357D02*
X116777928Y-52531928D01*
X116920785Y-52531928D01*
X116977928Y-52503357D01*
X117006500Y-52474785D01*
X117035071Y-52417642D01*
X117035071Y-52360500D01*
X117006500Y-52303357D01*
X116977928Y-52274785D01*
X116920785Y-52246214D01*
X116806500Y-52217642D01*
X116749357Y-52189071D01*
X116720785Y-52160500D01*
X116692214Y-52103357D01*
X116692214Y-52046214D01*
X116720785Y-51989071D01*
X116749357Y-51960500D01*
X116806500Y-51931928D01*
X116949357Y-51931928D01*
X117035071Y-51960500D01*
X117292214Y-52303357D02*
X117749357Y-52303357D01*
X117520785Y-52531928D02*
X117520785Y-52074785D01*
X100482457Y-53062228D02*
X100482457Y-53547942D01*
X100511028Y-53605085D01*
X100539600Y-53633657D01*
X100596742Y-53662228D01*
X100711028Y-53662228D01*
X100768171Y-53633657D01*
X100796742Y-53605085D01*
X100825314Y-53547942D01*
X100825314Y-53062228D01*
X101082457Y-53119371D02*
X101111028Y-53090800D01*
X101168171Y-53062228D01*
X101311028Y-53062228D01*
X101368171Y-53090800D01*
X101396742Y-53119371D01*
X101425314Y-53176514D01*
X101425314Y-53233657D01*
X101396742Y-53319371D01*
X101053885Y-53662228D01*
X101425314Y-53662228D01*
X102251142Y-52560571D02*
X102279714Y-52532000D01*
X102336857Y-52503428D01*
X102479714Y-52503428D01*
X102536857Y-52532000D01*
X102565428Y-52560571D01*
X102594000Y-52617714D01*
X102594000Y-52674857D01*
X102565428Y-52760571D01*
X102222571Y-53103428D01*
X102594000Y-53103428D01*
X103108285Y-52703428D02*
X103108285Y-53103428D01*
X102965428Y-52474857D02*
X102822571Y-52903428D01*
X103194000Y-52903428D01*
X103708285Y-53103428D02*
X103422571Y-53103428D01*
X103422571Y-52503428D01*
X104251142Y-53046285D02*
X104222571Y-53074857D01*
X104136857Y-53103428D01*
X104079714Y-53103428D01*
X103994000Y-53074857D01*
X103936857Y-53017714D01*
X103908285Y-52960571D01*
X103879714Y-52846285D01*
X103879714Y-52760571D01*
X103908285Y-52646285D01*
X103936857Y-52589142D01*
X103994000Y-52532000D01*
X104079714Y-52503428D01*
X104136857Y-52503428D01*
X104222571Y-52532000D01*
X104251142Y-52560571D01*
X104822571Y-53103428D02*
X104479714Y-53103428D01*
X104651142Y-53103428D02*
X104651142Y-52503428D01*
X104594000Y-52589142D01*
X104536857Y-52646285D01*
X104479714Y-52674857D01*
X105194000Y-52503428D02*
X105251142Y-52503428D01*
X105308285Y-52532000D01*
X105336857Y-52560571D01*
X105365428Y-52617714D01*
X105394000Y-52732000D01*
X105394000Y-52874857D01*
X105365428Y-52989142D01*
X105336857Y-53046285D01*
X105308285Y-53074857D01*
X105251142Y-53103428D01*
X105194000Y-53103428D01*
X105136857Y-53074857D01*
X105108285Y-53046285D01*
X105079714Y-52989142D01*
X105051142Y-52874857D01*
X105051142Y-52732000D01*
X105079714Y-52617714D01*
X105108285Y-52560571D01*
X105136857Y-52532000D01*
X105194000Y-52503428D01*
X105622571Y-52560571D02*
X105651142Y-52532000D01*
X105708285Y-52503428D01*
X105851142Y-52503428D01*
X105908285Y-52532000D01*
X105936857Y-52560571D01*
X105965428Y-52617714D01*
X105965428Y-52674857D01*
X105936857Y-52760571D01*
X105594000Y-53103428D01*
X105965428Y-53103428D01*
X106508285Y-52503428D02*
X106222571Y-52503428D01*
X106194000Y-52789142D01*
X106222571Y-52760571D01*
X106279714Y-52732000D01*
X106422571Y-52732000D01*
X106479714Y-52760571D01*
X106508285Y-52789142D01*
X106536857Y-52846285D01*
X106536857Y-52989142D01*
X106508285Y-53046285D01*
X106479714Y-53074857D01*
X106422571Y-53103428D01*
X106279714Y-53103428D01*
X106222571Y-53074857D01*
X106194000Y-53046285D01*
X100228457Y-62307828D02*
X100228457Y-62793542D01*
X100257028Y-62850685D01*
X100285600Y-62879257D01*
X100342742Y-62907828D01*
X100457028Y-62907828D01*
X100514171Y-62879257D01*
X100542742Y-62850685D01*
X100571314Y-62793542D01*
X100571314Y-62307828D01*
X100799885Y-62307828D02*
X101171314Y-62307828D01*
X100971314Y-62536400D01*
X101057028Y-62536400D01*
X101114171Y-62564971D01*
X101142742Y-62593542D01*
X101171314Y-62650685D01*
X101171314Y-62793542D01*
X101142742Y-62850685D01*
X101114171Y-62879257D01*
X101057028Y-62907828D01*
X100885600Y-62907828D01*
X100828457Y-62879257D01*
X100799885Y-62850685D01*
X102251142Y-61958571D02*
X102279714Y-61930000D01*
X102336857Y-61901428D01*
X102479714Y-61901428D01*
X102536857Y-61930000D01*
X102565428Y-61958571D01*
X102594000Y-62015714D01*
X102594000Y-62072857D01*
X102565428Y-62158571D01*
X102222571Y-62501428D01*
X102594000Y-62501428D01*
X103108285Y-62101428D02*
X103108285Y-62501428D01*
X102965428Y-61872857D02*
X102822571Y-62301428D01*
X103194000Y-62301428D01*
X103708285Y-62501428D02*
X103422571Y-62501428D01*
X103422571Y-61901428D01*
X104251142Y-62444285D02*
X104222571Y-62472857D01*
X104136857Y-62501428D01*
X104079714Y-62501428D01*
X103994000Y-62472857D01*
X103936857Y-62415714D01*
X103908285Y-62358571D01*
X103879714Y-62244285D01*
X103879714Y-62158571D01*
X103908285Y-62044285D01*
X103936857Y-61987142D01*
X103994000Y-61930000D01*
X104079714Y-61901428D01*
X104136857Y-61901428D01*
X104222571Y-61930000D01*
X104251142Y-61958571D01*
X104822571Y-62501428D02*
X104479714Y-62501428D01*
X104651142Y-62501428D02*
X104651142Y-61901428D01*
X104594000Y-61987142D01*
X104536857Y-62044285D01*
X104479714Y-62072857D01*
X105194000Y-61901428D02*
X105251142Y-61901428D01*
X105308285Y-61930000D01*
X105336857Y-61958571D01*
X105365428Y-62015714D01*
X105394000Y-62130000D01*
X105394000Y-62272857D01*
X105365428Y-62387142D01*
X105336857Y-62444285D01*
X105308285Y-62472857D01*
X105251142Y-62501428D01*
X105194000Y-62501428D01*
X105136857Y-62472857D01*
X105108285Y-62444285D01*
X105079714Y-62387142D01*
X105051142Y-62272857D01*
X105051142Y-62130000D01*
X105079714Y-62015714D01*
X105108285Y-61958571D01*
X105136857Y-61930000D01*
X105194000Y-61901428D01*
X105622571Y-61958571D02*
X105651142Y-61930000D01*
X105708285Y-61901428D01*
X105851142Y-61901428D01*
X105908285Y-61930000D01*
X105936857Y-61958571D01*
X105965428Y-62015714D01*
X105965428Y-62072857D01*
X105936857Y-62158571D01*
X105594000Y-62501428D01*
X105965428Y-62501428D01*
X106508285Y-61901428D02*
X106222571Y-61901428D01*
X106194000Y-62187142D01*
X106222571Y-62158571D01*
X106279714Y-62130000D01*
X106422571Y-62130000D01*
X106479714Y-62158571D01*
X106508285Y-62187142D01*
X106536857Y-62244285D01*
X106536857Y-62387142D01*
X106508285Y-62444285D01*
X106479714Y-62472857D01*
X106422571Y-62501428D01*
X106279714Y-62501428D01*
X106222571Y-62472857D01*
X106194000Y-62444285D01*
X90297095Y-56321380D02*
X90297095Y-57130904D01*
X90344714Y-57226142D01*
X90392333Y-57273761D01*
X90487571Y-57321380D01*
X90678047Y-57321380D01*
X90773285Y-57273761D01*
X90820904Y-57226142D01*
X90868523Y-57130904D01*
X90868523Y-56321380D01*
X91773285Y-56654714D02*
X91773285Y-57321380D01*
X91535190Y-56273761D02*
X91297095Y-56988047D01*
X91916142Y-56988047D01*
X87289142Y-68997500D02*
X87574857Y-68997500D01*
X87232000Y-69168928D02*
X87432000Y-68568928D01*
X87632000Y-69168928D01*
X87746285Y-68568928D02*
X88089142Y-68568928D01*
X87917714Y-69168928D02*
X87917714Y-68568928D01*
X88289142Y-69168928D02*
X88289142Y-68568928D01*
X88489142Y-68997500D01*
X88689142Y-68568928D01*
X88689142Y-69168928D01*
X88974857Y-68854642D02*
X89174857Y-68854642D01*
X89260571Y-69168928D02*
X88974857Y-69168928D01*
X88974857Y-68568928D01*
X89260571Y-68568928D01*
X89832000Y-68597500D02*
X89774857Y-68568928D01*
X89689142Y-68568928D01*
X89603428Y-68597500D01*
X89546285Y-68654642D01*
X89517714Y-68711785D01*
X89489142Y-68826071D01*
X89489142Y-68911785D01*
X89517714Y-69026071D01*
X89546285Y-69083214D01*
X89603428Y-69140357D01*
X89689142Y-69168928D01*
X89746285Y-69168928D01*
X89832000Y-69140357D01*
X89860571Y-69111785D01*
X89860571Y-68911785D01*
X89746285Y-68911785D01*
X90089142Y-68997500D02*
X90374857Y-68997500D01*
X90032000Y-69168928D02*
X90232000Y-68568928D01*
X90432000Y-69168928D01*
X90574857Y-68568928D02*
X90946285Y-68568928D01*
X90746285Y-68797500D01*
X90832000Y-68797500D01*
X90889142Y-68826071D01*
X90917714Y-68854642D01*
X90946285Y-68911785D01*
X90946285Y-69054642D01*
X90917714Y-69111785D01*
X90889142Y-69140357D01*
X90832000Y-69168928D01*
X90660571Y-69168928D01*
X90603428Y-69140357D01*
X90574857Y-69111785D01*
X91174857Y-68626071D02*
X91203428Y-68597500D01*
X91260571Y-68568928D01*
X91403428Y-68568928D01*
X91460571Y-68597500D01*
X91489142Y-68626071D01*
X91517714Y-68683214D01*
X91517714Y-68740357D01*
X91489142Y-68826071D01*
X91146285Y-69168928D01*
X91517714Y-69168928D01*
X91860571Y-68826071D02*
X91803428Y-68797500D01*
X91774857Y-68768928D01*
X91746285Y-68711785D01*
X91746285Y-68683214D01*
X91774857Y-68626071D01*
X91803428Y-68597500D01*
X91860571Y-68568928D01*
X91974857Y-68568928D01*
X92032000Y-68597500D01*
X92060571Y-68626071D01*
X92089142Y-68683214D01*
X92089142Y-68711785D01*
X92060571Y-68768928D01*
X92032000Y-68797500D01*
X91974857Y-68826071D01*
X91860571Y-68826071D01*
X91803428Y-68854642D01*
X91774857Y-68883214D01*
X91746285Y-68940357D01*
X91746285Y-69054642D01*
X91774857Y-69111785D01*
X91803428Y-69140357D01*
X91860571Y-69168928D01*
X91974857Y-69168928D01*
X92032000Y-69140357D01*
X92060571Y-69111785D01*
X92089142Y-69054642D01*
X92089142Y-68940357D01*
X92060571Y-68883214D01*
X92032000Y-68854642D01*
X91974857Y-68826071D01*
X92346285Y-69168928D02*
X92346285Y-68568928D01*
X92574857Y-68568928D01*
X92632000Y-68597500D01*
X92660571Y-68626071D01*
X92689142Y-68683214D01*
X92689142Y-68768928D01*
X92660571Y-68826071D01*
X92632000Y-68854642D01*
X92574857Y-68883214D01*
X92346285Y-68883214D01*
X92946285Y-68940357D02*
X93403428Y-68940357D01*
X93660571Y-68997500D02*
X93946285Y-68997500D01*
X93603428Y-69168928D02*
X93803428Y-68568928D01*
X94003428Y-69168928D01*
X94203428Y-68568928D02*
X94203428Y-69054642D01*
X94232000Y-69111785D01*
X94260571Y-69140357D01*
X94317714Y-69168928D01*
X94432000Y-69168928D01*
X94489142Y-69140357D01*
X94517714Y-69111785D01*
X94546285Y-69054642D01*
X94546285Y-68568928D01*
X118014785Y-65708214D02*
X118014785Y-65993928D01*
X117814785Y-65393928D02*
X118014785Y-65708214D01*
X118214785Y-65393928D01*
X118729071Y-65993928D02*
X118386214Y-65993928D01*
X118557642Y-65993928D02*
X118557642Y-65393928D01*
X118500500Y-65479642D01*
X118443357Y-65536785D01*
X118386214Y-65565357D01*
X117016357Y-62028428D02*
X117387785Y-62028428D01*
X117187785Y-62257000D01*
X117273500Y-62257000D01*
X117330642Y-62285571D01*
X117359214Y-62314142D01*
X117387785Y-62371285D01*
X117387785Y-62514142D01*
X117359214Y-62571285D01*
X117330642Y-62599857D01*
X117273500Y-62628428D01*
X117102071Y-62628428D01*
X117044928Y-62599857D01*
X117016357Y-62571285D01*
X117616357Y-62085571D02*
X117644928Y-62057000D01*
X117702071Y-62028428D01*
X117844928Y-62028428D01*
X117902071Y-62057000D01*
X117930642Y-62085571D01*
X117959214Y-62142714D01*
X117959214Y-62199857D01*
X117930642Y-62285571D01*
X117587785Y-62628428D01*
X117959214Y-62628428D01*
X118216357Y-62628428D02*
X118216357Y-62028428D01*
X118416357Y-62457000D01*
X118616357Y-62028428D01*
X118616357Y-62628428D01*
X118902071Y-62628428D02*
X118902071Y-62028428D01*
X118902071Y-62314142D02*
X119244928Y-62314142D01*
X119244928Y-62628428D02*
X119244928Y-62028428D01*
X119473500Y-62228428D02*
X119787785Y-62228428D01*
X119473500Y-62628428D01*
X119787785Y-62628428D01*
X87026785Y-48690214D02*
X87026785Y-48975928D01*
X86826785Y-48375928D02*
X87026785Y-48690214D01*
X87226785Y-48375928D01*
X87398214Y-48433071D02*
X87426785Y-48404500D01*
X87483928Y-48375928D01*
X87626785Y-48375928D01*
X87683928Y-48404500D01*
X87712500Y-48433071D01*
X87741071Y-48490214D01*
X87741071Y-48547357D01*
X87712500Y-48633071D01*
X87369642Y-48975928D01*
X87741071Y-48975928D01*
X84858571Y-53681285D02*
X84830000Y-53709857D01*
X84744285Y-53738428D01*
X84687142Y-53738428D01*
X84601428Y-53709857D01*
X84544285Y-53652714D01*
X84515714Y-53595571D01*
X84487142Y-53481285D01*
X84487142Y-53395571D01*
X84515714Y-53281285D01*
X84544285Y-53224142D01*
X84601428Y-53167000D01*
X84687142Y-53138428D01*
X84744285Y-53138428D01*
X84830000Y-53167000D01*
X84858571Y-53195571D01*
X85115714Y-53738428D02*
X85115714Y-53338428D01*
X85115714Y-53452714D02*
X85144285Y-53395571D01*
X85172857Y-53367000D01*
X85230000Y-53338428D01*
X85287142Y-53338428D01*
X85430000Y-53338428D02*
X85572857Y-53738428D01*
X85715714Y-53338428D02*
X85572857Y-53738428D01*
X85515714Y-53881285D01*
X85487142Y-53909857D01*
X85430000Y-53938428D01*
X85915714Y-53709857D02*
X85972857Y-53738428D01*
X86087142Y-53738428D01*
X86144285Y-53709857D01*
X86172857Y-53652714D01*
X86172857Y-53624142D01*
X86144285Y-53567000D01*
X86087142Y-53538428D01*
X86001428Y-53538428D01*
X85944285Y-53509857D01*
X85915714Y-53452714D01*
X85915714Y-53424142D01*
X85944285Y-53367000D01*
X86001428Y-53338428D01*
X86087142Y-53338428D01*
X86144285Y-53367000D01*
X86344285Y-53338428D02*
X86572857Y-53338428D01*
X86430000Y-53138428D02*
X86430000Y-53652714D01*
X86458571Y-53709857D01*
X86515714Y-53738428D01*
X86572857Y-53738428D01*
X87030000Y-53738428D02*
X87030000Y-53424142D01*
X87001428Y-53367000D01*
X86944285Y-53338428D01*
X86830000Y-53338428D01*
X86772857Y-53367000D01*
X87030000Y-53709857D02*
X86972857Y-53738428D01*
X86830000Y-53738428D01*
X86772857Y-53709857D01*
X86744285Y-53652714D01*
X86744285Y-53595571D01*
X86772857Y-53538428D01*
X86830000Y-53509857D01*
X86972857Y-53509857D01*
X87030000Y-53481285D01*
X87401428Y-53738428D02*
X87344285Y-53709857D01*
X87315714Y-53652714D01*
X87315714Y-53138428D01*
X88401428Y-53738428D02*
X88058571Y-53738428D01*
X88230000Y-53738428D02*
X88230000Y-53138428D01*
X88172857Y-53224142D01*
X88115714Y-53281285D01*
X88058571Y-53309857D01*
X88915714Y-53138428D02*
X88801428Y-53138428D01*
X88744285Y-53167000D01*
X88715714Y-53195571D01*
X88658571Y-53281285D01*
X88630000Y-53395571D01*
X88630000Y-53624142D01*
X88658571Y-53681285D01*
X88687142Y-53709857D01*
X88744285Y-53738428D01*
X88858571Y-53738428D01*
X88915714Y-53709857D01*
X88944285Y-53681285D01*
X88972857Y-53624142D01*
X88972857Y-53481285D01*
X88944285Y-53424142D01*
X88915714Y-53395571D01*
X88858571Y-53367000D01*
X88744285Y-53367000D01*
X88687142Y-53395571D01*
X88658571Y-53424142D01*
X88630000Y-53481285D01*
X89230000Y-53738428D02*
X89230000Y-53138428D01*
X89430000Y-53567000D01*
X89630000Y-53138428D01*
X89630000Y-53738428D01*
X89915714Y-53738428D02*
X89915714Y-53138428D01*
X89915714Y-53424142D02*
X90258571Y-53424142D01*
X90258571Y-53738428D02*
X90258571Y-53138428D01*
X90487142Y-53338428D02*
X90801428Y-53338428D01*
X90487142Y-53738428D01*
X90801428Y-53738428D01*
M02*
