G04 #@! TF.GenerationSoftware,KiCad,Pcbnew,5.1.7-a382d34a8~87~ubuntu20.04.1*
G04 #@! TF.CreationDate,2020-11-09T21:14:28-03:00*
G04 #@! TF.ProjectId,Arduino_Clone,41726475-696e-46f5-9f43-6c6f6e652e6b,1*
G04 #@! TF.SameCoordinates,Original*
G04 #@! TF.FileFunction,Copper,L2,Bot*
G04 #@! TF.FilePolarity,Positive*
%FSLAX46Y46*%
G04 Gerber Fmt 4.6, Leading zero omitted, Abs format (unit mm)*
G04 Created by KiCad (PCBNEW 5.1.7-a382d34a8~87~ubuntu20.04.1) date 2020-11-09 21:14:28*
%MOMM*%
%LPD*%
G01*
G04 APERTURE LIST*
G04 #@! TA.AperFunction,ComponentPad*
%ADD10R,1.700000X1.700000*%
G04 #@! TD*
G04 #@! TA.AperFunction,ComponentPad*
%ADD11O,1.700000X1.700000*%
G04 #@! TD*
G04 #@! TA.AperFunction,ViaPad*
%ADD12C,0.800000*%
G04 #@! TD*
G04 #@! TA.AperFunction,Conductor*
%ADD13C,0.300000*%
G04 #@! TD*
G04 #@! TA.AperFunction,Conductor*
%ADD14C,0.250000*%
G04 #@! TD*
G04 #@! TA.AperFunction,Conductor*
%ADD15C,0.254000*%
G04 #@! TD*
G04 #@! TA.AperFunction,Conductor*
%ADD16C,0.100000*%
G04 #@! TD*
G04 APERTURE END LIST*
D10*
X80645000Y-50482500D03*
D11*
X80645000Y-53022500D03*
X98171000Y-46672500D03*
X95631000Y-46672500D03*
X93091000Y-46672500D03*
D10*
X90551000Y-46672500D03*
X87884000Y-73660000D03*
D11*
X90424000Y-73660000D03*
X92964000Y-73660000D03*
X95504000Y-73660000D03*
X98044000Y-73660000D03*
X100584000Y-73660000D03*
X103124000Y-73660000D03*
X105664000Y-73660000D03*
X108204000Y-73660000D03*
D10*
X83185000Y-60071000D03*
D11*
X80645000Y-60071000D03*
X83185000Y-62611000D03*
X80645000Y-62611000D03*
X83185000Y-65151000D03*
X80645000Y-65151000D03*
D10*
X103188000Y-46672500D03*
D11*
X105728000Y-46672500D03*
X108268000Y-46672500D03*
X110808000Y-46672500D03*
D12*
X88376700Y-64986700D03*
X89106300Y-54479600D03*
X85507200Y-65642500D03*
X86574100Y-55305500D03*
X89859000Y-57533600D03*
X91404100Y-64966100D03*
X89098300Y-65948600D03*
X85081200Y-57092800D03*
X106845700Y-58420000D03*
D13*
X80645000Y-50482500D02*
X80645000Y-51682800D01*
X80645000Y-60071000D02*
X80645000Y-58870700D01*
X80645000Y-58870700D02*
X79444700Y-57670400D01*
X79444700Y-57670400D02*
X79444700Y-52507900D01*
X79444700Y-52507900D02*
X80269800Y-51682800D01*
X80269800Y-51682800D02*
X80645000Y-51682800D01*
X90551000Y-46672500D02*
X89350700Y-46672500D01*
X81648200Y-55225900D02*
X80645000Y-54222800D01*
X80645000Y-63950700D02*
X80269900Y-63950700D01*
X80269900Y-63950700D02*
X79441700Y-63122500D01*
X79441700Y-63122500D02*
X79441700Y-62045600D01*
X79441700Y-62045600D02*
X80146300Y-61341000D01*
X80146300Y-61341000D02*
X81128800Y-61341000D01*
X81128800Y-61341000D02*
X81906500Y-60563300D01*
X81906500Y-60563300D02*
X81906500Y-55484300D01*
X81906500Y-55484300D02*
X81648200Y-55225900D01*
X89350700Y-46672500D02*
X89350700Y-47523400D01*
X89350700Y-47523400D02*
X81648200Y-55225900D01*
X80645000Y-53022500D02*
X80645000Y-54222800D01*
X80645000Y-65151000D02*
X80645000Y-63950700D01*
X105664000Y-73660000D02*
X105664000Y-72459700D01*
X103188000Y-46672500D02*
X103188000Y-69983700D01*
X103188000Y-69983700D02*
X105664000Y-72459700D01*
D14*
X88376700Y-64986700D02*
X88376700Y-55209200D01*
X88376700Y-55209200D02*
X89106300Y-54479600D01*
X86574100Y-55305500D02*
X86574100Y-64575600D01*
X86574100Y-64575600D02*
X85507200Y-65642500D01*
X89859000Y-57533600D02*
X89859000Y-53619800D01*
X89859000Y-53619800D02*
X95631000Y-47847800D01*
X95631000Y-46672500D02*
X95631000Y-47847800D01*
X83185000Y-60071000D02*
X83185000Y-57032000D01*
X83185000Y-57032000D02*
X91726400Y-48490600D01*
X91726400Y-48490600D02*
X91726400Y-45641400D01*
X91726400Y-45641400D02*
X91582100Y-45497100D01*
X91582100Y-45497100D02*
X83389000Y-45497100D01*
X83389000Y-45497100D02*
X78936000Y-49950100D01*
X78936000Y-49950100D02*
X78936000Y-65138200D01*
X78936000Y-65138200D02*
X80616600Y-66818800D01*
X80616600Y-66818800D02*
X89551400Y-66818800D01*
X89551400Y-66818800D02*
X91404100Y-64966100D01*
X109632700Y-46672500D02*
X109632700Y-46305200D01*
X109632700Y-46305200D02*
X108817400Y-45489900D01*
X108817400Y-45489900D02*
X95149500Y-45489900D01*
X95149500Y-45489900D02*
X94266300Y-46373100D01*
X94266300Y-46373100D02*
X94266300Y-47188700D01*
X94266300Y-47188700D02*
X86874800Y-54580200D01*
X86874800Y-54580200D02*
X86273700Y-54580200D01*
X86273700Y-54580200D02*
X84337900Y-56516000D01*
X84337900Y-56516000D02*
X84337900Y-57784200D01*
X84337900Y-57784200D02*
X84360300Y-57806600D01*
X84360300Y-57806600D02*
X84360300Y-61068500D01*
X84360300Y-61068500D02*
X83993100Y-61435700D01*
X83993100Y-61435700D02*
X83185000Y-61435700D01*
X83185000Y-62611000D02*
X83185000Y-61435700D01*
X110808000Y-46672500D02*
X109632700Y-46672500D01*
X89098300Y-65948600D02*
X88678500Y-66368400D01*
X88678500Y-66368400D02*
X82682600Y-66368400D01*
X82682600Y-66368400D02*
X82009600Y-65695400D01*
X82009600Y-65695400D02*
X82009600Y-63975600D01*
X82009600Y-63975600D02*
X80645000Y-62611000D01*
X85081200Y-57092800D02*
X85081200Y-62446800D01*
X85081200Y-62446800D02*
X83552300Y-63975700D01*
X83552300Y-63975700D02*
X83185000Y-63975700D01*
X83185000Y-65151000D02*
X83185000Y-63975700D01*
X108268000Y-46672500D02*
X108268000Y-56997700D01*
X108268000Y-56997700D02*
X106845700Y-58420000D01*
D15*
X117249562Y-45063116D02*
X117102092Y-45419142D01*
X117026912Y-45797097D01*
X117026912Y-46182457D01*
X117102092Y-46560412D01*
X117249562Y-46916438D01*
X117463657Y-47236853D01*
X117736147Y-47509343D01*
X118056562Y-47723438D01*
X118412588Y-47870908D01*
X118790543Y-47946088D01*
X119175903Y-47946088D01*
X119553858Y-47870908D01*
X119909884Y-47723438D01*
X120230299Y-47509343D01*
X120307500Y-47432142D01*
X120307501Y-73011582D01*
X120246076Y-72950157D01*
X119925661Y-72736062D01*
X119569635Y-72588592D01*
X119191680Y-72513412D01*
X118806320Y-72513412D01*
X118428365Y-72588592D01*
X118072339Y-72736062D01*
X117751924Y-72950157D01*
X117479434Y-73222647D01*
X117265339Y-73543062D01*
X117117869Y-73899088D01*
X117042689Y-74277043D01*
X117042689Y-74662403D01*
X117117869Y-75040358D01*
X117265339Y-75396384D01*
X117403730Y-75603500D01*
X81287770Y-75603500D01*
X81426161Y-75396384D01*
X81573631Y-75040358D01*
X81648811Y-74662403D01*
X81648811Y-74277043D01*
X81573631Y-73899088D01*
X81426161Y-73543062D01*
X81212066Y-73222647D01*
X80939576Y-72950157D01*
X80729817Y-72810000D01*
X86395928Y-72810000D01*
X86395928Y-74510000D01*
X86408188Y-74634482D01*
X86444498Y-74754180D01*
X86503463Y-74864494D01*
X86582815Y-74961185D01*
X86679506Y-75040537D01*
X86789820Y-75099502D01*
X86909518Y-75135812D01*
X87034000Y-75148072D01*
X88734000Y-75148072D01*
X88858482Y-75135812D01*
X88978180Y-75099502D01*
X89088494Y-75040537D01*
X89185185Y-74961185D01*
X89264537Y-74864494D01*
X89323502Y-74754180D01*
X89345513Y-74681620D01*
X89477368Y-74813475D01*
X89720589Y-74975990D01*
X89990842Y-75087932D01*
X90277740Y-75145000D01*
X90570260Y-75145000D01*
X90857158Y-75087932D01*
X91127411Y-74975990D01*
X91370632Y-74813475D01*
X91577475Y-74606632D01*
X91694000Y-74432240D01*
X91810525Y-74606632D01*
X92017368Y-74813475D01*
X92260589Y-74975990D01*
X92530842Y-75087932D01*
X92817740Y-75145000D01*
X93110260Y-75145000D01*
X93397158Y-75087932D01*
X93667411Y-74975990D01*
X93910632Y-74813475D01*
X94117475Y-74606632D01*
X94234000Y-74432240D01*
X94350525Y-74606632D01*
X94557368Y-74813475D01*
X94800589Y-74975990D01*
X95070842Y-75087932D01*
X95357740Y-75145000D01*
X95650260Y-75145000D01*
X95937158Y-75087932D01*
X96207411Y-74975990D01*
X96450632Y-74813475D01*
X96657475Y-74606632D01*
X96774000Y-74432240D01*
X96890525Y-74606632D01*
X97097368Y-74813475D01*
X97340589Y-74975990D01*
X97610842Y-75087932D01*
X97897740Y-75145000D01*
X98190260Y-75145000D01*
X98477158Y-75087932D01*
X98747411Y-74975990D01*
X98990632Y-74813475D01*
X99197475Y-74606632D01*
X99314000Y-74432240D01*
X99430525Y-74606632D01*
X99637368Y-74813475D01*
X99880589Y-74975990D01*
X100150842Y-75087932D01*
X100437740Y-75145000D01*
X100730260Y-75145000D01*
X101017158Y-75087932D01*
X101287411Y-74975990D01*
X101530632Y-74813475D01*
X101737475Y-74606632D01*
X101854000Y-74432240D01*
X101970525Y-74606632D01*
X102177368Y-74813475D01*
X102420589Y-74975990D01*
X102690842Y-75087932D01*
X102977740Y-75145000D01*
X103270260Y-75145000D01*
X103557158Y-75087932D01*
X103827411Y-74975990D01*
X104070632Y-74813475D01*
X104277475Y-74606632D01*
X104399195Y-74424466D01*
X104468822Y-74541355D01*
X104663731Y-74757588D01*
X104897080Y-74931641D01*
X105159901Y-75056825D01*
X105307110Y-75101476D01*
X105537000Y-74980155D01*
X105537000Y-73787000D01*
X105517000Y-73787000D01*
X105517000Y-73533000D01*
X105537000Y-73533000D01*
X105537000Y-72339845D01*
X105791000Y-72339845D01*
X105791000Y-73533000D01*
X105811000Y-73533000D01*
X105811000Y-73787000D01*
X105791000Y-73787000D01*
X105791000Y-74980155D01*
X106020890Y-75101476D01*
X106168099Y-75056825D01*
X106430920Y-74931641D01*
X106664269Y-74757588D01*
X106859178Y-74541355D01*
X106928805Y-74424466D01*
X107050525Y-74606632D01*
X107257368Y-74813475D01*
X107500589Y-74975990D01*
X107770842Y-75087932D01*
X108057740Y-75145000D01*
X108350260Y-75145000D01*
X108637158Y-75087932D01*
X108907411Y-74975990D01*
X109150632Y-74813475D01*
X109357475Y-74606632D01*
X109519990Y-74363411D01*
X109631932Y-74093158D01*
X109689000Y-73806260D01*
X109689000Y-73513740D01*
X109631932Y-73226842D01*
X109519990Y-72956589D01*
X109357475Y-72713368D01*
X109150632Y-72506525D01*
X108907411Y-72344010D01*
X108637158Y-72232068D01*
X108350260Y-72175000D01*
X108057740Y-72175000D01*
X107770842Y-72232068D01*
X107500589Y-72344010D01*
X107257368Y-72506525D01*
X107050525Y-72713368D01*
X106928805Y-72895534D01*
X106859178Y-72778645D01*
X106664269Y-72562412D01*
X106430920Y-72388359D01*
X106168099Y-72263175D01*
X106020890Y-72218524D01*
X105791000Y-72339845D01*
X105537000Y-72339845D01*
X105307110Y-72218524D01*
X105159901Y-72263175D01*
X104897080Y-72388359D01*
X104663731Y-72562412D01*
X104468822Y-72778645D01*
X104399195Y-72895534D01*
X104277475Y-72713368D01*
X104070632Y-72506525D01*
X103827411Y-72344010D01*
X103557158Y-72232068D01*
X103270260Y-72175000D01*
X102977740Y-72175000D01*
X102690842Y-72232068D01*
X102420589Y-72344010D01*
X102177368Y-72506525D01*
X101970525Y-72713368D01*
X101854000Y-72887760D01*
X101737475Y-72713368D01*
X101530632Y-72506525D01*
X101287411Y-72344010D01*
X101017158Y-72232068D01*
X100730260Y-72175000D01*
X100437740Y-72175000D01*
X100150842Y-72232068D01*
X99880589Y-72344010D01*
X99637368Y-72506525D01*
X99430525Y-72713368D01*
X99314000Y-72887760D01*
X99197475Y-72713368D01*
X98990632Y-72506525D01*
X98747411Y-72344010D01*
X98477158Y-72232068D01*
X98190260Y-72175000D01*
X97897740Y-72175000D01*
X97610842Y-72232068D01*
X97340589Y-72344010D01*
X97097368Y-72506525D01*
X96890525Y-72713368D01*
X96774000Y-72887760D01*
X96657475Y-72713368D01*
X96450632Y-72506525D01*
X96207411Y-72344010D01*
X95937158Y-72232068D01*
X95650260Y-72175000D01*
X95357740Y-72175000D01*
X95070842Y-72232068D01*
X94800589Y-72344010D01*
X94557368Y-72506525D01*
X94350525Y-72713368D01*
X94234000Y-72887760D01*
X94117475Y-72713368D01*
X93910632Y-72506525D01*
X93667411Y-72344010D01*
X93397158Y-72232068D01*
X93110260Y-72175000D01*
X92817740Y-72175000D01*
X92530842Y-72232068D01*
X92260589Y-72344010D01*
X92017368Y-72506525D01*
X91810525Y-72713368D01*
X91694000Y-72887760D01*
X91577475Y-72713368D01*
X91370632Y-72506525D01*
X91127411Y-72344010D01*
X90857158Y-72232068D01*
X90570260Y-72175000D01*
X90277740Y-72175000D01*
X89990842Y-72232068D01*
X89720589Y-72344010D01*
X89477368Y-72506525D01*
X89345513Y-72638380D01*
X89323502Y-72565820D01*
X89264537Y-72455506D01*
X89185185Y-72358815D01*
X89088494Y-72279463D01*
X88978180Y-72220498D01*
X88858482Y-72184188D01*
X88734000Y-72171928D01*
X87034000Y-72171928D01*
X86909518Y-72184188D01*
X86789820Y-72220498D01*
X86679506Y-72279463D01*
X86582815Y-72358815D01*
X86503463Y-72455506D01*
X86444498Y-72565820D01*
X86408188Y-72685518D01*
X86395928Y-72810000D01*
X80729817Y-72810000D01*
X80619161Y-72736062D01*
X80263135Y-72588592D01*
X79885180Y-72513412D01*
X79499820Y-72513412D01*
X79121865Y-72588592D01*
X78765839Y-72736062D01*
X78445424Y-72950157D01*
X78320500Y-73075081D01*
X78320500Y-65586205D01*
X78353056Y-65625874D01*
X78396000Y-65678201D01*
X78424998Y-65701999D01*
X80052801Y-67329803D01*
X80076599Y-67358801D01*
X80192324Y-67453774D01*
X80324353Y-67524346D01*
X80467614Y-67567803D01*
X80579267Y-67578800D01*
X80579276Y-67578800D01*
X80616599Y-67582476D01*
X80653922Y-67578800D01*
X89514078Y-67578800D01*
X89551400Y-67582476D01*
X89588722Y-67578800D01*
X89588733Y-67578800D01*
X89700386Y-67567803D01*
X89843647Y-67524346D01*
X89975676Y-67453774D01*
X90091401Y-67358801D01*
X90115203Y-67329798D01*
X91443902Y-66001100D01*
X91506039Y-66001100D01*
X91705998Y-65961326D01*
X91894356Y-65883305D01*
X92063874Y-65770037D01*
X92208037Y-65625874D01*
X92321305Y-65456356D01*
X92399326Y-65267998D01*
X92439100Y-65068039D01*
X92439100Y-64864161D01*
X92399326Y-64664202D01*
X92321305Y-64475844D01*
X92208037Y-64306326D01*
X92063874Y-64162163D01*
X91894356Y-64048895D01*
X91705998Y-63970874D01*
X91506039Y-63931100D01*
X91302161Y-63931100D01*
X91102202Y-63970874D01*
X90913844Y-64048895D01*
X90744326Y-64162163D01*
X90600163Y-64306326D01*
X90486895Y-64475844D01*
X90408874Y-64664202D01*
X90369100Y-64864161D01*
X90369100Y-64926298D01*
X89944028Y-65351370D01*
X89902237Y-65288826D01*
X89758074Y-65144663D01*
X89588556Y-65031395D01*
X89411700Y-64958138D01*
X89411700Y-64884761D01*
X89371926Y-64684802D01*
X89293905Y-64496444D01*
X89180637Y-64326926D01*
X89136700Y-64282989D01*
X89136700Y-58275011D01*
X89199226Y-58337537D01*
X89368744Y-58450805D01*
X89557102Y-58528826D01*
X89757061Y-58568600D01*
X89960939Y-58568600D01*
X90160898Y-58528826D01*
X90349256Y-58450805D01*
X90518774Y-58337537D01*
X90662937Y-58193374D01*
X90776205Y-58023856D01*
X90854226Y-57835498D01*
X90894000Y-57635539D01*
X90894000Y-57431661D01*
X90854226Y-57231702D01*
X90776205Y-57043344D01*
X90662937Y-56873826D01*
X90619000Y-56829889D01*
X90619000Y-53934601D01*
X96142003Y-48411599D01*
X96171001Y-48387801D01*
X96265974Y-48272076D01*
X96336546Y-48140047D01*
X96380003Y-47996786D01*
X96384089Y-47955296D01*
X96577632Y-47825975D01*
X96784475Y-47619132D01*
X96901000Y-47444740D01*
X97017525Y-47619132D01*
X97224368Y-47825975D01*
X97467589Y-47988490D01*
X97737842Y-48100432D01*
X98024740Y-48157500D01*
X98317260Y-48157500D01*
X98604158Y-48100432D01*
X98874411Y-47988490D01*
X99117632Y-47825975D01*
X99324475Y-47619132D01*
X99389042Y-47522500D01*
X101699928Y-47522500D01*
X101712188Y-47646982D01*
X101748498Y-47766680D01*
X101807463Y-47876994D01*
X101886815Y-47973685D01*
X101983506Y-48053037D01*
X102093820Y-48112002D01*
X102213518Y-48148312D01*
X102338000Y-48160572D01*
X102902250Y-48157500D01*
X103061000Y-47998750D01*
X103061000Y-46799500D01*
X101861750Y-46799500D01*
X101703000Y-46958250D01*
X101699928Y-47522500D01*
X99389042Y-47522500D01*
X99486990Y-47375911D01*
X99598932Y-47105658D01*
X99656000Y-46818760D01*
X99656000Y-46526240D01*
X99601032Y-46249900D01*
X101702255Y-46249900D01*
X101703000Y-46386750D01*
X101861750Y-46545500D01*
X103061000Y-46545500D01*
X103061000Y-46525500D01*
X103315000Y-46525500D01*
X103315000Y-46545500D01*
X103335000Y-46545500D01*
X103335000Y-46799500D01*
X103315000Y-46799500D01*
X103315000Y-47998750D01*
X103473750Y-48157500D01*
X104038000Y-48160572D01*
X104162482Y-48148312D01*
X104282180Y-48112002D01*
X104392494Y-48053037D01*
X104489185Y-47973685D01*
X104568537Y-47876994D01*
X104627502Y-47766680D01*
X104649513Y-47694120D01*
X104781368Y-47825975D01*
X105024589Y-47988490D01*
X105294842Y-48100432D01*
X105581740Y-48157500D01*
X105874260Y-48157500D01*
X106161158Y-48100432D01*
X106431411Y-47988490D01*
X106674632Y-47825975D01*
X106881475Y-47619132D01*
X106998000Y-47444740D01*
X107114525Y-47619132D01*
X107321368Y-47825975D01*
X107508000Y-47950679D01*
X107508001Y-56682897D01*
X106805899Y-57385000D01*
X106743761Y-57385000D01*
X106543802Y-57424774D01*
X106355444Y-57502795D01*
X106185926Y-57616063D01*
X106041763Y-57760226D01*
X105928495Y-57929744D01*
X105850474Y-58118102D01*
X105810700Y-58318061D01*
X105810700Y-58521939D01*
X105850474Y-58721898D01*
X105928495Y-58910256D01*
X106041763Y-59079774D01*
X106185926Y-59223937D01*
X106355444Y-59337205D01*
X106543802Y-59415226D01*
X106743761Y-59455000D01*
X106947639Y-59455000D01*
X107147598Y-59415226D01*
X107335956Y-59337205D01*
X107505474Y-59223937D01*
X107649637Y-59079774D01*
X107762905Y-58910256D01*
X107840926Y-58721898D01*
X107880700Y-58521939D01*
X107880700Y-58459801D01*
X108779003Y-57561499D01*
X108808001Y-57537701D01*
X108895026Y-57431661D01*
X108902974Y-57421977D01*
X108973546Y-57289947D01*
X108987423Y-57244199D01*
X109017003Y-57146686D01*
X109028000Y-57035033D01*
X109028000Y-57035023D01*
X109031676Y-56997700D01*
X109028000Y-56960377D01*
X109028000Y-47950678D01*
X109214632Y-47825975D01*
X109421475Y-47619132D01*
X109538000Y-47444740D01*
X109654525Y-47619132D01*
X109861368Y-47825975D01*
X110104589Y-47988490D01*
X110374842Y-48100432D01*
X110661740Y-48157500D01*
X110954260Y-48157500D01*
X111241158Y-48100432D01*
X111511411Y-47988490D01*
X111754632Y-47825975D01*
X111961475Y-47619132D01*
X112123990Y-47375911D01*
X112235932Y-47105658D01*
X112293000Y-46818760D01*
X112293000Y-46526240D01*
X112235932Y-46239342D01*
X112123990Y-45969089D01*
X111961475Y-45725868D01*
X111754632Y-45519025D01*
X111511411Y-45356510D01*
X111241158Y-45244568D01*
X110954260Y-45187500D01*
X110661740Y-45187500D01*
X110374842Y-45244568D01*
X110104589Y-45356510D01*
X109897311Y-45495009D01*
X109381203Y-44978902D01*
X109357401Y-44949899D01*
X109242985Y-44856000D01*
X117387953Y-44856000D01*
X117249562Y-45063116D01*
G04 #@! TA.AperFunction,Conductor*
D16*
G36*
X117249562Y-45063116D02*
G01*
X117102092Y-45419142D01*
X117026912Y-45797097D01*
X117026912Y-46182457D01*
X117102092Y-46560412D01*
X117249562Y-46916438D01*
X117463657Y-47236853D01*
X117736147Y-47509343D01*
X118056562Y-47723438D01*
X118412588Y-47870908D01*
X118790543Y-47946088D01*
X119175903Y-47946088D01*
X119553858Y-47870908D01*
X119909884Y-47723438D01*
X120230299Y-47509343D01*
X120307500Y-47432142D01*
X120307501Y-73011582D01*
X120246076Y-72950157D01*
X119925661Y-72736062D01*
X119569635Y-72588592D01*
X119191680Y-72513412D01*
X118806320Y-72513412D01*
X118428365Y-72588592D01*
X118072339Y-72736062D01*
X117751924Y-72950157D01*
X117479434Y-73222647D01*
X117265339Y-73543062D01*
X117117869Y-73899088D01*
X117042689Y-74277043D01*
X117042689Y-74662403D01*
X117117869Y-75040358D01*
X117265339Y-75396384D01*
X117403730Y-75603500D01*
X81287770Y-75603500D01*
X81426161Y-75396384D01*
X81573631Y-75040358D01*
X81648811Y-74662403D01*
X81648811Y-74277043D01*
X81573631Y-73899088D01*
X81426161Y-73543062D01*
X81212066Y-73222647D01*
X80939576Y-72950157D01*
X80729817Y-72810000D01*
X86395928Y-72810000D01*
X86395928Y-74510000D01*
X86408188Y-74634482D01*
X86444498Y-74754180D01*
X86503463Y-74864494D01*
X86582815Y-74961185D01*
X86679506Y-75040537D01*
X86789820Y-75099502D01*
X86909518Y-75135812D01*
X87034000Y-75148072D01*
X88734000Y-75148072D01*
X88858482Y-75135812D01*
X88978180Y-75099502D01*
X89088494Y-75040537D01*
X89185185Y-74961185D01*
X89264537Y-74864494D01*
X89323502Y-74754180D01*
X89345513Y-74681620D01*
X89477368Y-74813475D01*
X89720589Y-74975990D01*
X89990842Y-75087932D01*
X90277740Y-75145000D01*
X90570260Y-75145000D01*
X90857158Y-75087932D01*
X91127411Y-74975990D01*
X91370632Y-74813475D01*
X91577475Y-74606632D01*
X91694000Y-74432240D01*
X91810525Y-74606632D01*
X92017368Y-74813475D01*
X92260589Y-74975990D01*
X92530842Y-75087932D01*
X92817740Y-75145000D01*
X93110260Y-75145000D01*
X93397158Y-75087932D01*
X93667411Y-74975990D01*
X93910632Y-74813475D01*
X94117475Y-74606632D01*
X94234000Y-74432240D01*
X94350525Y-74606632D01*
X94557368Y-74813475D01*
X94800589Y-74975990D01*
X95070842Y-75087932D01*
X95357740Y-75145000D01*
X95650260Y-75145000D01*
X95937158Y-75087932D01*
X96207411Y-74975990D01*
X96450632Y-74813475D01*
X96657475Y-74606632D01*
X96774000Y-74432240D01*
X96890525Y-74606632D01*
X97097368Y-74813475D01*
X97340589Y-74975990D01*
X97610842Y-75087932D01*
X97897740Y-75145000D01*
X98190260Y-75145000D01*
X98477158Y-75087932D01*
X98747411Y-74975990D01*
X98990632Y-74813475D01*
X99197475Y-74606632D01*
X99314000Y-74432240D01*
X99430525Y-74606632D01*
X99637368Y-74813475D01*
X99880589Y-74975990D01*
X100150842Y-75087932D01*
X100437740Y-75145000D01*
X100730260Y-75145000D01*
X101017158Y-75087932D01*
X101287411Y-74975990D01*
X101530632Y-74813475D01*
X101737475Y-74606632D01*
X101854000Y-74432240D01*
X101970525Y-74606632D01*
X102177368Y-74813475D01*
X102420589Y-74975990D01*
X102690842Y-75087932D01*
X102977740Y-75145000D01*
X103270260Y-75145000D01*
X103557158Y-75087932D01*
X103827411Y-74975990D01*
X104070632Y-74813475D01*
X104277475Y-74606632D01*
X104399195Y-74424466D01*
X104468822Y-74541355D01*
X104663731Y-74757588D01*
X104897080Y-74931641D01*
X105159901Y-75056825D01*
X105307110Y-75101476D01*
X105537000Y-74980155D01*
X105537000Y-73787000D01*
X105517000Y-73787000D01*
X105517000Y-73533000D01*
X105537000Y-73533000D01*
X105537000Y-72339845D01*
X105791000Y-72339845D01*
X105791000Y-73533000D01*
X105811000Y-73533000D01*
X105811000Y-73787000D01*
X105791000Y-73787000D01*
X105791000Y-74980155D01*
X106020890Y-75101476D01*
X106168099Y-75056825D01*
X106430920Y-74931641D01*
X106664269Y-74757588D01*
X106859178Y-74541355D01*
X106928805Y-74424466D01*
X107050525Y-74606632D01*
X107257368Y-74813475D01*
X107500589Y-74975990D01*
X107770842Y-75087932D01*
X108057740Y-75145000D01*
X108350260Y-75145000D01*
X108637158Y-75087932D01*
X108907411Y-74975990D01*
X109150632Y-74813475D01*
X109357475Y-74606632D01*
X109519990Y-74363411D01*
X109631932Y-74093158D01*
X109689000Y-73806260D01*
X109689000Y-73513740D01*
X109631932Y-73226842D01*
X109519990Y-72956589D01*
X109357475Y-72713368D01*
X109150632Y-72506525D01*
X108907411Y-72344010D01*
X108637158Y-72232068D01*
X108350260Y-72175000D01*
X108057740Y-72175000D01*
X107770842Y-72232068D01*
X107500589Y-72344010D01*
X107257368Y-72506525D01*
X107050525Y-72713368D01*
X106928805Y-72895534D01*
X106859178Y-72778645D01*
X106664269Y-72562412D01*
X106430920Y-72388359D01*
X106168099Y-72263175D01*
X106020890Y-72218524D01*
X105791000Y-72339845D01*
X105537000Y-72339845D01*
X105307110Y-72218524D01*
X105159901Y-72263175D01*
X104897080Y-72388359D01*
X104663731Y-72562412D01*
X104468822Y-72778645D01*
X104399195Y-72895534D01*
X104277475Y-72713368D01*
X104070632Y-72506525D01*
X103827411Y-72344010D01*
X103557158Y-72232068D01*
X103270260Y-72175000D01*
X102977740Y-72175000D01*
X102690842Y-72232068D01*
X102420589Y-72344010D01*
X102177368Y-72506525D01*
X101970525Y-72713368D01*
X101854000Y-72887760D01*
X101737475Y-72713368D01*
X101530632Y-72506525D01*
X101287411Y-72344010D01*
X101017158Y-72232068D01*
X100730260Y-72175000D01*
X100437740Y-72175000D01*
X100150842Y-72232068D01*
X99880589Y-72344010D01*
X99637368Y-72506525D01*
X99430525Y-72713368D01*
X99314000Y-72887760D01*
X99197475Y-72713368D01*
X98990632Y-72506525D01*
X98747411Y-72344010D01*
X98477158Y-72232068D01*
X98190260Y-72175000D01*
X97897740Y-72175000D01*
X97610842Y-72232068D01*
X97340589Y-72344010D01*
X97097368Y-72506525D01*
X96890525Y-72713368D01*
X96774000Y-72887760D01*
X96657475Y-72713368D01*
X96450632Y-72506525D01*
X96207411Y-72344010D01*
X95937158Y-72232068D01*
X95650260Y-72175000D01*
X95357740Y-72175000D01*
X95070842Y-72232068D01*
X94800589Y-72344010D01*
X94557368Y-72506525D01*
X94350525Y-72713368D01*
X94234000Y-72887760D01*
X94117475Y-72713368D01*
X93910632Y-72506525D01*
X93667411Y-72344010D01*
X93397158Y-72232068D01*
X93110260Y-72175000D01*
X92817740Y-72175000D01*
X92530842Y-72232068D01*
X92260589Y-72344010D01*
X92017368Y-72506525D01*
X91810525Y-72713368D01*
X91694000Y-72887760D01*
X91577475Y-72713368D01*
X91370632Y-72506525D01*
X91127411Y-72344010D01*
X90857158Y-72232068D01*
X90570260Y-72175000D01*
X90277740Y-72175000D01*
X89990842Y-72232068D01*
X89720589Y-72344010D01*
X89477368Y-72506525D01*
X89345513Y-72638380D01*
X89323502Y-72565820D01*
X89264537Y-72455506D01*
X89185185Y-72358815D01*
X89088494Y-72279463D01*
X88978180Y-72220498D01*
X88858482Y-72184188D01*
X88734000Y-72171928D01*
X87034000Y-72171928D01*
X86909518Y-72184188D01*
X86789820Y-72220498D01*
X86679506Y-72279463D01*
X86582815Y-72358815D01*
X86503463Y-72455506D01*
X86444498Y-72565820D01*
X86408188Y-72685518D01*
X86395928Y-72810000D01*
X80729817Y-72810000D01*
X80619161Y-72736062D01*
X80263135Y-72588592D01*
X79885180Y-72513412D01*
X79499820Y-72513412D01*
X79121865Y-72588592D01*
X78765839Y-72736062D01*
X78445424Y-72950157D01*
X78320500Y-73075081D01*
X78320500Y-65586205D01*
X78353056Y-65625874D01*
X78396000Y-65678201D01*
X78424998Y-65701999D01*
X80052801Y-67329803D01*
X80076599Y-67358801D01*
X80192324Y-67453774D01*
X80324353Y-67524346D01*
X80467614Y-67567803D01*
X80579267Y-67578800D01*
X80579276Y-67578800D01*
X80616599Y-67582476D01*
X80653922Y-67578800D01*
X89514078Y-67578800D01*
X89551400Y-67582476D01*
X89588722Y-67578800D01*
X89588733Y-67578800D01*
X89700386Y-67567803D01*
X89843647Y-67524346D01*
X89975676Y-67453774D01*
X90091401Y-67358801D01*
X90115203Y-67329798D01*
X91443902Y-66001100D01*
X91506039Y-66001100D01*
X91705998Y-65961326D01*
X91894356Y-65883305D01*
X92063874Y-65770037D01*
X92208037Y-65625874D01*
X92321305Y-65456356D01*
X92399326Y-65267998D01*
X92439100Y-65068039D01*
X92439100Y-64864161D01*
X92399326Y-64664202D01*
X92321305Y-64475844D01*
X92208037Y-64306326D01*
X92063874Y-64162163D01*
X91894356Y-64048895D01*
X91705998Y-63970874D01*
X91506039Y-63931100D01*
X91302161Y-63931100D01*
X91102202Y-63970874D01*
X90913844Y-64048895D01*
X90744326Y-64162163D01*
X90600163Y-64306326D01*
X90486895Y-64475844D01*
X90408874Y-64664202D01*
X90369100Y-64864161D01*
X90369100Y-64926298D01*
X89944028Y-65351370D01*
X89902237Y-65288826D01*
X89758074Y-65144663D01*
X89588556Y-65031395D01*
X89411700Y-64958138D01*
X89411700Y-64884761D01*
X89371926Y-64684802D01*
X89293905Y-64496444D01*
X89180637Y-64326926D01*
X89136700Y-64282989D01*
X89136700Y-58275011D01*
X89199226Y-58337537D01*
X89368744Y-58450805D01*
X89557102Y-58528826D01*
X89757061Y-58568600D01*
X89960939Y-58568600D01*
X90160898Y-58528826D01*
X90349256Y-58450805D01*
X90518774Y-58337537D01*
X90662937Y-58193374D01*
X90776205Y-58023856D01*
X90854226Y-57835498D01*
X90894000Y-57635539D01*
X90894000Y-57431661D01*
X90854226Y-57231702D01*
X90776205Y-57043344D01*
X90662937Y-56873826D01*
X90619000Y-56829889D01*
X90619000Y-53934601D01*
X96142003Y-48411599D01*
X96171001Y-48387801D01*
X96265974Y-48272076D01*
X96336546Y-48140047D01*
X96380003Y-47996786D01*
X96384089Y-47955296D01*
X96577632Y-47825975D01*
X96784475Y-47619132D01*
X96901000Y-47444740D01*
X97017525Y-47619132D01*
X97224368Y-47825975D01*
X97467589Y-47988490D01*
X97737842Y-48100432D01*
X98024740Y-48157500D01*
X98317260Y-48157500D01*
X98604158Y-48100432D01*
X98874411Y-47988490D01*
X99117632Y-47825975D01*
X99324475Y-47619132D01*
X99389042Y-47522500D01*
X101699928Y-47522500D01*
X101712188Y-47646982D01*
X101748498Y-47766680D01*
X101807463Y-47876994D01*
X101886815Y-47973685D01*
X101983506Y-48053037D01*
X102093820Y-48112002D01*
X102213518Y-48148312D01*
X102338000Y-48160572D01*
X102902250Y-48157500D01*
X103061000Y-47998750D01*
X103061000Y-46799500D01*
X101861750Y-46799500D01*
X101703000Y-46958250D01*
X101699928Y-47522500D01*
X99389042Y-47522500D01*
X99486990Y-47375911D01*
X99598932Y-47105658D01*
X99656000Y-46818760D01*
X99656000Y-46526240D01*
X99601032Y-46249900D01*
X101702255Y-46249900D01*
X101703000Y-46386750D01*
X101861750Y-46545500D01*
X103061000Y-46545500D01*
X103061000Y-46525500D01*
X103315000Y-46525500D01*
X103315000Y-46545500D01*
X103335000Y-46545500D01*
X103335000Y-46799500D01*
X103315000Y-46799500D01*
X103315000Y-47998750D01*
X103473750Y-48157500D01*
X104038000Y-48160572D01*
X104162482Y-48148312D01*
X104282180Y-48112002D01*
X104392494Y-48053037D01*
X104489185Y-47973685D01*
X104568537Y-47876994D01*
X104627502Y-47766680D01*
X104649513Y-47694120D01*
X104781368Y-47825975D01*
X105024589Y-47988490D01*
X105294842Y-48100432D01*
X105581740Y-48157500D01*
X105874260Y-48157500D01*
X106161158Y-48100432D01*
X106431411Y-47988490D01*
X106674632Y-47825975D01*
X106881475Y-47619132D01*
X106998000Y-47444740D01*
X107114525Y-47619132D01*
X107321368Y-47825975D01*
X107508000Y-47950679D01*
X107508001Y-56682897D01*
X106805899Y-57385000D01*
X106743761Y-57385000D01*
X106543802Y-57424774D01*
X106355444Y-57502795D01*
X106185926Y-57616063D01*
X106041763Y-57760226D01*
X105928495Y-57929744D01*
X105850474Y-58118102D01*
X105810700Y-58318061D01*
X105810700Y-58521939D01*
X105850474Y-58721898D01*
X105928495Y-58910256D01*
X106041763Y-59079774D01*
X106185926Y-59223937D01*
X106355444Y-59337205D01*
X106543802Y-59415226D01*
X106743761Y-59455000D01*
X106947639Y-59455000D01*
X107147598Y-59415226D01*
X107335956Y-59337205D01*
X107505474Y-59223937D01*
X107649637Y-59079774D01*
X107762905Y-58910256D01*
X107840926Y-58721898D01*
X107880700Y-58521939D01*
X107880700Y-58459801D01*
X108779003Y-57561499D01*
X108808001Y-57537701D01*
X108895026Y-57431661D01*
X108902974Y-57421977D01*
X108973546Y-57289947D01*
X108987423Y-57244199D01*
X109017003Y-57146686D01*
X109028000Y-57035033D01*
X109028000Y-57035023D01*
X109031676Y-56997700D01*
X109028000Y-56960377D01*
X109028000Y-47950678D01*
X109214632Y-47825975D01*
X109421475Y-47619132D01*
X109538000Y-47444740D01*
X109654525Y-47619132D01*
X109861368Y-47825975D01*
X110104589Y-47988490D01*
X110374842Y-48100432D01*
X110661740Y-48157500D01*
X110954260Y-48157500D01*
X111241158Y-48100432D01*
X111511411Y-47988490D01*
X111754632Y-47825975D01*
X111961475Y-47619132D01*
X112123990Y-47375911D01*
X112235932Y-47105658D01*
X112293000Y-46818760D01*
X112293000Y-46526240D01*
X112235932Y-46239342D01*
X112123990Y-45969089D01*
X111961475Y-45725868D01*
X111754632Y-45519025D01*
X111511411Y-45356510D01*
X111241158Y-45244568D01*
X110954260Y-45187500D01*
X110661740Y-45187500D01*
X110374842Y-45244568D01*
X110104589Y-45356510D01*
X109897311Y-45495009D01*
X109381203Y-44978902D01*
X109357401Y-44949899D01*
X109242985Y-44856000D01*
X117387953Y-44856000D01*
X117249562Y-45063116D01*
G37*
G04 #@! TD.AperFunction*
D15*
X80772000Y-65024000D02*
X80792000Y-65024000D01*
X80792000Y-65278000D01*
X80772000Y-65278000D01*
X80772000Y-65298000D01*
X80518000Y-65298000D01*
X80518000Y-65278000D01*
X80498000Y-65278000D01*
X80498000Y-65024000D01*
X80518000Y-65024000D01*
X80518000Y-65004000D01*
X80772000Y-65004000D01*
X80772000Y-65024000D01*
G04 #@! TA.AperFunction,Conductor*
D16*
G36*
X80772000Y-65024000D02*
G01*
X80792000Y-65024000D01*
X80792000Y-65278000D01*
X80772000Y-65278000D01*
X80772000Y-65298000D01*
X80518000Y-65298000D01*
X80518000Y-65278000D01*
X80498000Y-65278000D01*
X80498000Y-65024000D01*
X80518000Y-65024000D01*
X80518000Y-65004000D01*
X80772000Y-65004000D01*
X80772000Y-65024000D01*
G37*
G04 #@! TD.AperFunction*
D15*
X89066000Y-46386750D02*
X89224750Y-46545500D01*
X90424000Y-46545500D01*
X90424000Y-46525500D01*
X90678000Y-46525500D01*
X90678000Y-46545500D01*
X90698000Y-46545500D01*
X90698000Y-46799500D01*
X90678000Y-46799500D01*
X90678000Y-47998750D01*
X90836750Y-48157500D01*
X90966400Y-48158206D01*
X90966400Y-48175798D01*
X82673998Y-56468201D01*
X82645000Y-56491999D01*
X82621202Y-56520997D01*
X82621201Y-56520998D01*
X82550026Y-56607724D01*
X82479454Y-56739754D01*
X82435998Y-56883015D01*
X82421324Y-57032000D01*
X82425001Y-57069332D01*
X82425000Y-58582928D01*
X82335000Y-58582928D01*
X82210518Y-58595188D01*
X82090820Y-58631498D01*
X81980506Y-58690463D01*
X81883815Y-58769815D01*
X81804463Y-58866506D01*
X81745498Y-58976820D01*
X81723487Y-59049380D01*
X81591632Y-58917525D01*
X81427616Y-58807933D01*
X81426020Y-58791726D01*
X81418642Y-58716813D01*
X81373754Y-58568840D01*
X81362549Y-58547877D01*
X81300862Y-58432467D01*
X81202764Y-58312936D01*
X81172810Y-58288353D01*
X80229700Y-57345243D01*
X80229700Y-54443262D01*
X80288109Y-54463981D01*
X80518000Y-54343314D01*
X80518000Y-53149500D01*
X80772000Y-53149500D01*
X80772000Y-54343314D01*
X81001891Y-54463981D01*
X81276252Y-54366657D01*
X81526355Y-54217678D01*
X81742588Y-54022769D01*
X81916641Y-53789420D01*
X82041825Y-53526599D01*
X82086476Y-53379390D01*
X81965155Y-53149500D01*
X80772000Y-53149500D01*
X80518000Y-53149500D01*
X80498000Y-53149500D01*
X80498000Y-52895500D01*
X80518000Y-52895500D01*
X80518000Y-52875500D01*
X80772000Y-52875500D01*
X80772000Y-52895500D01*
X81965155Y-52895500D01*
X82086476Y-52665610D01*
X82041825Y-52518401D01*
X81916641Y-52255580D01*
X81742588Y-52022231D01*
X81658534Y-51946466D01*
X81739180Y-51922002D01*
X81849494Y-51863037D01*
X81946185Y-51783685D01*
X82025537Y-51686994D01*
X82084502Y-51576680D01*
X82120812Y-51456982D01*
X82133072Y-51332500D01*
X82133072Y-49632500D01*
X82120812Y-49508018D01*
X82084502Y-49388320D01*
X82025537Y-49278006D01*
X81946185Y-49181315D01*
X81849494Y-49101963D01*
X81739180Y-49042998D01*
X81619482Y-49006688D01*
X81495000Y-48994428D01*
X80966473Y-48994428D01*
X82438401Y-47522500D01*
X89062928Y-47522500D01*
X89075188Y-47646982D01*
X89111498Y-47766680D01*
X89170463Y-47876994D01*
X89249815Y-47973685D01*
X89346506Y-48053037D01*
X89456820Y-48112002D01*
X89576518Y-48148312D01*
X89701000Y-48160572D01*
X90265250Y-48157500D01*
X90424000Y-47998750D01*
X90424000Y-46799500D01*
X89224750Y-46799500D01*
X89066000Y-46958250D01*
X89062928Y-47522500D01*
X82438401Y-47522500D01*
X83703802Y-46257100D01*
X89065294Y-46257100D01*
X89066000Y-46386750D01*
G04 #@! TA.AperFunction,Conductor*
D16*
G36*
X89066000Y-46386750D02*
G01*
X89224750Y-46545500D01*
X90424000Y-46545500D01*
X90424000Y-46525500D01*
X90678000Y-46525500D01*
X90678000Y-46545500D01*
X90698000Y-46545500D01*
X90698000Y-46799500D01*
X90678000Y-46799500D01*
X90678000Y-47998750D01*
X90836750Y-48157500D01*
X90966400Y-48158206D01*
X90966400Y-48175798D01*
X82673998Y-56468201D01*
X82645000Y-56491999D01*
X82621202Y-56520997D01*
X82621201Y-56520998D01*
X82550026Y-56607724D01*
X82479454Y-56739754D01*
X82435998Y-56883015D01*
X82421324Y-57032000D01*
X82425001Y-57069332D01*
X82425000Y-58582928D01*
X82335000Y-58582928D01*
X82210518Y-58595188D01*
X82090820Y-58631498D01*
X81980506Y-58690463D01*
X81883815Y-58769815D01*
X81804463Y-58866506D01*
X81745498Y-58976820D01*
X81723487Y-59049380D01*
X81591632Y-58917525D01*
X81427616Y-58807933D01*
X81426020Y-58791726D01*
X81418642Y-58716813D01*
X81373754Y-58568840D01*
X81362549Y-58547877D01*
X81300862Y-58432467D01*
X81202764Y-58312936D01*
X81172810Y-58288353D01*
X80229700Y-57345243D01*
X80229700Y-54443262D01*
X80288109Y-54463981D01*
X80518000Y-54343314D01*
X80518000Y-53149500D01*
X80772000Y-53149500D01*
X80772000Y-54343314D01*
X81001891Y-54463981D01*
X81276252Y-54366657D01*
X81526355Y-54217678D01*
X81742588Y-54022769D01*
X81916641Y-53789420D01*
X82041825Y-53526599D01*
X82086476Y-53379390D01*
X81965155Y-53149500D01*
X80772000Y-53149500D01*
X80518000Y-53149500D01*
X80498000Y-53149500D01*
X80498000Y-52895500D01*
X80518000Y-52895500D01*
X80518000Y-52875500D01*
X80772000Y-52875500D01*
X80772000Y-52895500D01*
X81965155Y-52895500D01*
X82086476Y-52665610D01*
X82041825Y-52518401D01*
X81916641Y-52255580D01*
X81742588Y-52022231D01*
X81658534Y-51946466D01*
X81739180Y-51922002D01*
X81849494Y-51863037D01*
X81946185Y-51783685D01*
X82025537Y-51686994D01*
X82084502Y-51576680D01*
X82120812Y-51456982D01*
X82133072Y-51332500D01*
X82133072Y-49632500D01*
X82120812Y-49508018D01*
X82084502Y-49388320D01*
X82025537Y-49278006D01*
X81946185Y-49181315D01*
X81849494Y-49101963D01*
X81739180Y-49042998D01*
X81619482Y-49006688D01*
X81495000Y-48994428D01*
X80966473Y-48994428D01*
X82438401Y-47522500D01*
X89062928Y-47522500D01*
X89075188Y-47646982D01*
X89111498Y-47766680D01*
X89170463Y-47876994D01*
X89249815Y-47973685D01*
X89346506Y-48053037D01*
X89456820Y-48112002D01*
X89576518Y-48148312D01*
X89701000Y-48160572D01*
X90265250Y-48157500D01*
X90424000Y-47998750D01*
X90424000Y-46799500D01*
X89224750Y-46799500D01*
X89066000Y-46958250D01*
X89062928Y-47522500D01*
X82438401Y-47522500D01*
X83703802Y-46257100D01*
X89065294Y-46257100D01*
X89066000Y-46386750D01*
G37*
G04 #@! TD.AperFunction*
M02*
