G04 #@! TF.GenerationSoftware,KiCad,Pcbnew,5.1.7-a382d34a8~87~ubuntu20.04.1*
G04 #@! TF.CreationDate,2020-11-09T21:14:28-03:00*
G04 #@! TF.ProjectId,Arduino_Clone,41726475-696e-46f5-9f43-6c6f6e652e6b,1*
G04 #@! TF.SameCoordinates,Original*
G04 #@! TF.FileFunction,Soldermask,Top*
G04 #@! TF.FilePolarity,Negative*
%FSLAX46Y46*%
G04 Gerber Fmt 4.6, Leading zero omitted, Abs format (unit mm)*
G04 Created by KiCad (PCBNEW 5.1.7-a382d34a8~87~ubuntu20.04.1) date 2020-11-09 21:14:28*
%MOMM*%
%LPD*%
G01*
G04 APERTURE LIST*
%ADD10R,1.700000X1.700000*%
%ADD11O,1.700000X1.700000*%
%ADD12R,1.700000X0.650000*%
%ADD13R,0.550000X1.500000*%
%ADD14R,1.500000X0.550000*%
%ADD15R,1.000000X1.800000*%
%ADD16R,3.500000X2.400000*%
G04 APERTURE END LIST*
D10*
X80645000Y-50482500D03*
D11*
X80645000Y-53022500D03*
G36*
G01*
X95004000Y-54704000D02*
X95004000Y-53754000D01*
G75*
G02*
X95254000Y-53504000I250000J0D01*
G01*
X95754000Y-53504000D01*
G75*
G02*
X96004000Y-53754000I0J-250000D01*
G01*
X96004000Y-54704000D01*
G75*
G02*
X95754000Y-54954000I-250000J0D01*
G01*
X95254000Y-54954000D01*
G75*
G02*
X95004000Y-54704000I0J250000D01*
G01*
G37*
G36*
G01*
X96904000Y-54704000D02*
X96904000Y-53754000D01*
G75*
G02*
X97154000Y-53504000I250000J0D01*
G01*
X97654000Y-53504000D01*
G75*
G02*
X97904000Y-53754000I0J-250000D01*
G01*
X97904000Y-54704000D01*
G75*
G02*
X97654000Y-54954000I-250000J0D01*
G01*
X97154000Y-54954000D01*
G75*
G02*
X96904000Y-54704000I0J250000D01*
G01*
G37*
G36*
G01*
X96972500Y-51338500D02*
X96972500Y-50388500D01*
G75*
G02*
X97222500Y-50138500I250000J0D01*
G01*
X97722500Y-50138500D01*
G75*
G02*
X97972500Y-50388500I0J-250000D01*
G01*
X97972500Y-51338500D01*
G75*
G02*
X97722500Y-51588500I-250000J0D01*
G01*
X97222500Y-51588500D01*
G75*
G02*
X96972500Y-51338500I0J250000D01*
G01*
G37*
G36*
G01*
X95072500Y-51338500D02*
X95072500Y-50388500D01*
G75*
G02*
X95322500Y-50138500I250000J0D01*
G01*
X95822500Y-50138500D01*
G75*
G02*
X96072500Y-50388500I0J-250000D01*
G01*
X96072500Y-51338500D01*
G75*
G02*
X95822500Y-51588500I-250000J0D01*
G01*
X95322500Y-51588500D01*
G75*
G02*
X95072500Y-51338500I0J250000D01*
G01*
G37*
G36*
G01*
X114610000Y-63469500D02*
X114610000Y-64419500D01*
G75*
G02*
X114360000Y-64669500I-250000J0D01*
G01*
X113860000Y-64669500D01*
G75*
G02*
X113610000Y-64419500I0J250000D01*
G01*
X113610000Y-63469500D01*
G75*
G02*
X113860000Y-63219500I250000J0D01*
G01*
X114360000Y-63219500D01*
G75*
G02*
X114610000Y-63469500I0J-250000D01*
G01*
G37*
G36*
G01*
X112710000Y-63469500D02*
X112710000Y-64419500D01*
G75*
G02*
X112460000Y-64669500I-250000J0D01*
G01*
X111960000Y-64669500D01*
G75*
G02*
X111710000Y-64419500I0J250000D01*
G01*
X111710000Y-63469500D01*
G75*
G02*
X111960000Y-63219500I250000J0D01*
G01*
X112460000Y-63219500D01*
G75*
G02*
X112710000Y-63469500I0J-250000D01*
G01*
G37*
G36*
G01*
X116692000Y-70808001D02*
X116692000Y-69907999D01*
G75*
G02*
X116941999Y-69658000I249999J0D01*
G01*
X117592001Y-69658000D01*
G75*
G02*
X117842000Y-69907999I0J-249999D01*
G01*
X117842000Y-70808001D01*
G75*
G02*
X117592001Y-71058000I-249999J0D01*
G01*
X116941999Y-71058000D01*
G75*
G02*
X116692000Y-70808001I0J249999D01*
G01*
G37*
G36*
G01*
X118742000Y-70808001D02*
X118742000Y-69907999D01*
G75*
G02*
X118991999Y-69658000I249999J0D01*
G01*
X119642001Y-69658000D01*
G75*
G02*
X119892000Y-69907999I0J-249999D01*
G01*
X119892000Y-70808001D01*
G75*
G02*
X119642001Y-71058000I-249999J0D01*
G01*
X118991999Y-71058000D01*
G75*
G02*
X118742000Y-70808001I0J249999D01*
G01*
G37*
X98171000Y-46672500D03*
X95631000Y-46672500D03*
X93091000Y-46672500D03*
D10*
X90551000Y-46672500D03*
X87884000Y-73660000D03*
D11*
X90424000Y-73660000D03*
X92964000Y-73660000D03*
X95504000Y-73660000D03*
X98044000Y-73660000D03*
X100584000Y-73660000D03*
X103124000Y-73660000D03*
X105664000Y-73660000D03*
X108204000Y-73660000D03*
D10*
X83185000Y-60071000D03*
D11*
X80645000Y-60071000D03*
X83185000Y-62611000D03*
X80645000Y-62611000D03*
X83185000Y-65151000D03*
X80645000Y-65151000D03*
D10*
X103188000Y-46672500D03*
D11*
X105728000Y-46672500D03*
X108268000Y-46672500D03*
X110808000Y-46672500D03*
G36*
G01*
X114876000Y-69780999D02*
X114876000Y-70681001D01*
G75*
G02*
X114626001Y-70931000I-249999J0D01*
G01*
X114100999Y-70931000D01*
G75*
G02*
X113851000Y-70681001I0J249999D01*
G01*
X113851000Y-69780999D01*
G75*
G02*
X114100999Y-69531000I249999J0D01*
G01*
X114626001Y-69531000D01*
G75*
G02*
X114876000Y-69780999I0J-249999D01*
G01*
G37*
G36*
G01*
X113051000Y-69780999D02*
X113051000Y-70681001D01*
G75*
G02*
X112801001Y-70931000I-249999J0D01*
G01*
X112275999Y-70931000D01*
G75*
G02*
X112026000Y-70681001I0J249999D01*
G01*
X112026000Y-69780999D01*
G75*
G02*
X112275999Y-69531000I249999J0D01*
G01*
X112801001Y-69531000D01*
G75*
G02*
X113051000Y-69780999I0J-249999D01*
G01*
G37*
G36*
G01*
X84433500Y-46476499D02*
X84433500Y-47376501D01*
G75*
G02*
X84183501Y-47626500I-249999J0D01*
G01*
X83658499Y-47626500D01*
G75*
G02*
X83408500Y-47376501I0J249999D01*
G01*
X83408500Y-46476499D01*
G75*
G02*
X83658499Y-46226500I249999J0D01*
G01*
X84183501Y-46226500D01*
G75*
G02*
X84433500Y-46476499I0J-249999D01*
G01*
G37*
G36*
G01*
X86258500Y-46476499D02*
X86258500Y-47376501D01*
G75*
G02*
X86008501Y-47626500I-249999J0D01*
G01*
X85483499Y-47626500D01*
G75*
G02*
X85233500Y-47376501I0J249999D01*
G01*
X85233500Y-46476499D01*
G75*
G02*
X85483499Y-46226500I249999J0D01*
G01*
X86008501Y-46226500D01*
G75*
G02*
X86258500Y-46476499I0J-249999D01*
G01*
G37*
G36*
G01*
X111120000Y-54379000D02*
X111120000Y-54079000D01*
G75*
G02*
X111270000Y-53929000I150000J0D01*
G01*
X112870000Y-53929000D01*
G75*
G02*
X113020000Y-54079000I0J-150000D01*
G01*
X113020000Y-54379000D01*
G75*
G02*
X112870000Y-54529000I-150000J0D01*
G01*
X111270000Y-54529000D01*
G75*
G02*
X111120000Y-54379000I0J150000D01*
G01*
G37*
G36*
G01*
X111120000Y-55649000D02*
X111120000Y-55349000D01*
G75*
G02*
X111270000Y-55199000I150000J0D01*
G01*
X112870000Y-55199000D01*
G75*
G02*
X113020000Y-55349000I0J-150000D01*
G01*
X113020000Y-55649000D01*
G75*
G02*
X112870000Y-55799000I-150000J0D01*
G01*
X111270000Y-55799000D01*
G75*
G02*
X111120000Y-55649000I0J150000D01*
G01*
G37*
G36*
G01*
X111120000Y-56919000D02*
X111120000Y-56619000D01*
G75*
G02*
X111270000Y-56469000I150000J0D01*
G01*
X112870000Y-56469000D01*
G75*
G02*
X113020000Y-56619000I0J-150000D01*
G01*
X113020000Y-56919000D01*
G75*
G02*
X112870000Y-57069000I-150000J0D01*
G01*
X111270000Y-57069000D01*
G75*
G02*
X111120000Y-56919000I0J150000D01*
G01*
G37*
G36*
G01*
X111120000Y-58189000D02*
X111120000Y-57889000D01*
G75*
G02*
X111270000Y-57739000I150000J0D01*
G01*
X112870000Y-57739000D01*
G75*
G02*
X113020000Y-57889000I0J-150000D01*
G01*
X113020000Y-58189000D01*
G75*
G02*
X112870000Y-58339000I-150000J0D01*
G01*
X111270000Y-58339000D01*
G75*
G02*
X111120000Y-58189000I0J150000D01*
G01*
G37*
G36*
G01*
X118120000Y-58189000D02*
X118120000Y-57889000D01*
G75*
G02*
X118270000Y-57739000I150000J0D01*
G01*
X119870000Y-57739000D01*
G75*
G02*
X120020000Y-57889000I0J-150000D01*
G01*
X120020000Y-58189000D01*
G75*
G02*
X119870000Y-58339000I-150000J0D01*
G01*
X118270000Y-58339000D01*
G75*
G02*
X118120000Y-58189000I0J150000D01*
G01*
G37*
G36*
G01*
X118120000Y-56919000D02*
X118120000Y-56619000D01*
G75*
G02*
X118270000Y-56469000I150000J0D01*
G01*
X119870000Y-56469000D01*
G75*
G02*
X120020000Y-56619000I0J-150000D01*
G01*
X120020000Y-56919000D01*
G75*
G02*
X119870000Y-57069000I-150000J0D01*
G01*
X118270000Y-57069000D01*
G75*
G02*
X118120000Y-56919000I0J150000D01*
G01*
G37*
G36*
G01*
X118120000Y-55649000D02*
X118120000Y-55349000D01*
G75*
G02*
X118270000Y-55199000I150000J0D01*
G01*
X119870000Y-55199000D01*
G75*
G02*
X120020000Y-55349000I0J-150000D01*
G01*
X120020000Y-55649000D01*
G75*
G02*
X119870000Y-55799000I-150000J0D01*
G01*
X118270000Y-55799000D01*
G75*
G02*
X118120000Y-55649000I0J150000D01*
G01*
G37*
G36*
G01*
X118120000Y-54379000D02*
X118120000Y-54079000D01*
G75*
G02*
X118270000Y-53929000I150000J0D01*
G01*
X119870000Y-53929000D01*
G75*
G02*
X120020000Y-54079000I0J-150000D01*
G01*
X120020000Y-54379000D01*
G75*
G02*
X119870000Y-54529000I-150000J0D01*
G01*
X118270000Y-54529000D01*
G75*
G02*
X118120000Y-54379000I0J150000D01*
G01*
G37*
D12*
X100998000Y-54610000D03*
X100998000Y-55880000D03*
X100998000Y-57150000D03*
X100998000Y-58420000D03*
X108298000Y-58420000D03*
X108298000Y-57150000D03*
X108298000Y-55880000D03*
X108298000Y-54610000D03*
X108108000Y-63881000D03*
X108108000Y-65151000D03*
X108108000Y-66421000D03*
X108108000Y-67691000D03*
X100808000Y-67691000D03*
X100808000Y-66421000D03*
X100808000Y-65151000D03*
X100808000Y-63881000D03*
D13*
X88259000Y-67319000D03*
D14*
X86859000Y-60319000D03*
X86859000Y-61119000D03*
X86859000Y-61919000D03*
X86859000Y-62719000D03*
X86859000Y-63519000D03*
X86859000Y-64319000D03*
X86859000Y-65119000D03*
X86859000Y-65919000D03*
D13*
X89059000Y-67319000D03*
X89859000Y-67319000D03*
X90659000Y-67319000D03*
X91459000Y-67319000D03*
X92259000Y-67319000D03*
X93059000Y-67319000D03*
X93859000Y-67319000D03*
D14*
X95259000Y-65919000D03*
X95259000Y-65119000D03*
X95259000Y-64319000D03*
X95259000Y-63519000D03*
X95259000Y-62719000D03*
X95259000Y-61919000D03*
X95259000Y-61119000D03*
X95259000Y-60319000D03*
D13*
X93859000Y-58919000D03*
X93059000Y-58919000D03*
X92259000Y-58919000D03*
X91459000Y-58919000D03*
X90659000Y-58919000D03*
X89859000Y-58919000D03*
X89059000Y-58919000D03*
X88259000Y-58919000D03*
D15*
X117030000Y-64008000D03*
X119530000Y-64008000D03*
D16*
X85153500Y-51054000D03*
X90353500Y-51054000D03*
M02*
